<svg width="225" height="154" viewBox="0 0 225 154" fill="none" xmlns="http://www.w3.org/2000/svg">
<rect x="2.33742" y="1.59914" width="220.682" height="150.319" rx="17.5906" fill="white" stroke="#D9D9D9" stroke-width="3.19828"/>
<path fill-rule="evenodd" clip-rule="evenodd" d="M158 51.8148C172.005 76.6248 163.247 108.09 138.438 122.095C113.629 136.099 82.1645 127.339 68.1593 102.529C54.1542 77.7194 62.9123 46.2541 87.721 32.2496C112.53 18.2452 143.995 27.0048 158 51.8148ZM114.451 54.3898C121.911 53.0084 128.296 53.6414 130.775 60.1273C132.595 64.8737 131.354 68.3668 128.536 70.9356C134.277 70.7317 138.258 74.2484 139.835 80.3276C141.459 89.4409 135.473 93.6643 126.133 96.8402L128.698 106.174L123.055 107.737L120.524 98.529C119.061 98.9359 117.558 99.3362 116.003 99.7363L118.549 108.988L112.911 110.548L110.333 101.2L98.9514 104.321L98.2233 97.2877C98.2233 97.2877 102.416 96.1914 102.326 96.1498C103.922 95.7042 104.031 94.4424 103.936 93.7L96.9637 68.3727C96.4344 67.29 95.3254 66.1753 93.0384 66.8071C93.0844 66.7107 88.9406 67.9462 88.9406 67.9462L87.2846 61.9365L98.657 58.765L96.1146 49.5186L101.755 47.9569L104.249 57.0193C105.75 56.5685 107.259 56.1202 108.741 55.7094L106.262 46.7055L111.905 45.1423L114.451 54.3898ZM110.236 74.5866C114.112 73.5775 122.545 71.3815 120.945 65.5606C119.304 59.6071 111.288 62.0543 107.363 63.2525C106.919 63.3883 106.526 63.508 106.202 63.5977L109.296 74.8362C109.564 74.7617 109.881 74.6792 110.236 74.5866ZM115.367 92.5973C120.005 91.3817 130.149 88.723 128.382 82.311C126.577 75.754 116.935 78.6734 112.231 80.0978L112.231 80.0978C111.705 80.257 111.241 80.3975 110.857 80.504L114.265 92.8913C114.579 92.8038 114.951 92.7064 115.367 92.5974L115.367 92.5973Z" fill="#8FC258"/>
</svg>
