<svg width="225" height="154" viewBox="0 0 225 154" fill="none" xmlns="http://www.w3.org/2000/svg">
<rect x="1.85695" y="1.59914" width="220.682" height="150.319" rx="17.5906" fill="white" stroke="#D9D9D9" stroke-width="3.19828"/>
<path fill-rule="evenodd" clip-rule="evenodd" d="M45.9292 88.0599C44.7048 88.7393 43.4012 89.0783 42.0192 89.0783H40.9527C40.6757 89.0783 40.2801 89.0552 39.1376 88.8529L43.0006 72.4163C43.7113 71.7776 44.4779 71.3631 45.3667 71.1626C46.2555 70.963 46.8279 70.9091 47.3815 70.9091C49.079 70.9091 50.3924 71.402 51.0248 72.481C51.6563 73.5591 51.9727 75.0572 51.9727 76.9744C51.9727 78.5327 51.7153 80.0308 51.2025 81.4687C50.6887 82.9066 49.9879 84.1947 49.0995 85.3334C48.2107 86.4717 47.1532 87.381 45.9292 88.0599ZM54.638 64.4518C53.2547 63.7729 51.6163 63.433 49.7201 63.433C48.8112 63.433 47.9622 63.533 47.1728 63.7326C46.382 63.9331 45.6373 64.1916 44.8479 64.5509L48.4765 49.1123L39.2927 50.5502L29.043 94.1116C30.1882 94.6714 31.4023 95.1105 32.6867 95.4295C33.9698 95.7491 35.1844 95.9885 36.3301 96.1487C37.4753 96.308 38.493 96.3976 39.3818 96.4185C40.2706 96.4379 40.8926 96.4483 41.248 96.4483C44.0124 96.4483 46.5803 95.9183 48.9499 94.8602C51.3201 93.8024 53.3733 92.3645 55.112 90.5464C56.8497 88.7288 58.2223 86.5916 59.2297 84.1349C60.2371 81.6782 60.7405 79.0717 60.7405 76.3153C60.7405 74.5181 60.5226 72.8403 60.0885 71.2824C59.6535 69.7241 58.9822 68.3668 58.0742 67.2077C57.1652 66.0495 56.02 65.1312 54.638 64.4518ZM78.9274 59.5878L80.2767 53.8475H71.4792L70.1299 59.5878H78.9274ZM88.9857 88.3491C89.6323 88.6772 90.5234 88.8402 91.657 88.8402C92.6285 88.8402 93.5697 88.7483 94.4804 88.5641C95.0761 88.4437 95.6941 88.3016 96.3095 88.0893L94.4773 95.8401C94.3332 95.8754 94.1108 95.9297 93.9644 95.9636C92.5471 96.2909 90.8675 96.4547 88.9248 96.4547C86.1313 96.4547 83.9653 96.0347 82.4276 95.196C80.8885 94.3574 79.7957 93.2109 79.1485 91.7572C78.5005 90.3043 78.2168 88.6361 78.2987 86.7523C78.3792 84.87 78.663 82.8835 79.1485 80.7957L85.0993 55.3727L94.5108 53.8986L92.2034 63.4172H102.283L100.462 70.9091H90.4428L87.7711 82.2082C87.5281 83.1506 87.3764 84.0304 87.3155 84.8487C87.2551 85.6679 87.3553 86.3744 87.6194 86.9673C87.8821 87.5611 88.3372 88.0219 88.9857 88.3491ZM198.553 63.4275H189.756L184.639 85.1994H184.648L183.945 88.1942C183.454 88.3336 182.965 88.459 182.48 88.5572C181.569 88.7414 180.628 88.8337 179.657 88.8337C178.523 88.8337 177.632 88.6703 176.985 88.3422C176.337 88.015 175.882 87.5547 175.619 86.9604C175.355 86.3675 175.254 85.6615 175.315 84.8418C175.376 84.0235 175.528 83.1436 175.771 82.2013L178.442 70.9022L180.203 63.4103L180.203 63.408H171.216L167.148 80.7892C166.663 82.8771 166.379 84.8631 166.298 86.7459C166.216 88.6292 166.5 90.2979 167.148 91.7503C167.795 93.204 168.888 94.3509 170.427 95.1896C171.965 96.0278 174.131 96.4483 176.924 96.4483C178.867 96.4483 180.547 96.2844 181.964 95.9567C182.021 95.9436 182.076 95.9296 182.132 95.9156L182.128 95.9318C181.734 97.725 180.937 99.1792 179.657 100.314C178.376 101.45 176.475 102.018 173.954 102.018C172.877 102.018 171.9 101.954 171.013 101.83L169.282 109.197C170.453 109.351 171.751 109.43 173.185 109.43C175.864 109.43 178.209 109.12 180.219 108.503C182.228 107.885 183.951 106.949 185.389 105.694C186.827 104.438 188.029 102.864 188.995 100.972C189.96 99.0792 190.738 96.8389 191.329 94.2482L197.416 68.3681C197.409 68.3645 197.402 68.3617 197.394 68.3586L198.553 63.4275ZM61.4533 96.4546L69.2197 63.4085H78.0173L70.2508 96.4546H61.4533ZM155.402 70.909C151.3 70.909 150.517 70.909 148.836 71.7907C147.643 72.4161 146.655 73.3566 145.788 74.4537C144.92 75.5513 144.24 76.8177 143.747 78.2538C143.253 79.6908 143.007 81.1866 143.007 82.7427C143.007 84.6576 143.322 86.1747 143.954 87.2913C144.584 88.4087 145.749 88.9668 147.445 88.9668C148.352 88.9668 149.171 88.7876 149.901 88.4282C150.631 88.0693 151.41 87.4705 152.239 86.6327C152.318 85.6361 152.446 84.5888 152.624 83.4908C152.786 82.4885 152.988 81.5528 153.172 80.6978L153.172 80.6972L153.172 80.6966L153.224 80.4584L155.402 70.909ZM161.649 82.0244C161.096 84.2992 160.938 86.583 161.175 88.8772C161.412 91.1724 162.28 94.6882 163.126 96.4483H154.613C153.838 95.1227 153.666 94.3219 153.548 93.7684C153.507 93.5791 153.473 93.4186 153.423 93.276C152.318 94.1944 151.095 94.952 149.754 95.5504C148.412 96.1487 146.913 96.4483 145.256 96.4483C143.283 96.4483 141.596 96.0985 140.197 95.401C138.795 94.7031 137.652 93.7653 136.764 92.5881C135.876 91.4118 135.234 90.035 134.841 88.4586C134.446 86.8826 134.249 85.1967 134.249 83.4012C134.249 80.6481 134.731 78.0547 135.699 75.621C136.665 73.1874 138.007 71.0625 139.723 69.2466C141.439 67.4313 145.581 63.428 152.377 63.428L156.469 63.4279C158.895 63.4277 161.949 63.4276 166.026 63.4276L161.649 82.0244ZM110.174 88.8542C110.849 89.0153 111.683 89.0955 112.677 89.0955C114.226 89.0955 115.635 88.8044 116.907 88.2219C118.177 87.6399 119.26 86.8266 120.153 85.7815C121.047 84.7374 121.741 83.4828 122.239 82.0159C122.734 80.5499 122.983 78.9337 122.983 77.1658C122.983 75.4392 122.605 73.9723 121.851 72.7675C121.096 71.5622 119.773 70.9218 117.906 70.9141C116.601 70.9091 114.434 70.9091 114.434 70.9091L110.174 88.8542ZM131.802 76.5028C131.802 79.4356 131.325 82.1168 130.372 84.5464C129.419 86.9773 128.098 89.076 126.41 90.8425C124.721 92.6108 122.696 93.9863 120.333 94.9702C117.97 95.9537 115.398 96.4461 112.618 96.4461C111.267 96.4461 109.917 96.3257 108.567 96.0845L105.886 106.99H97.0686L107.304 63.4286C108.372 63.4279 112.733 63.4282 115.991 63.4284L119.053 63.4286C121.276 63.4286 123.193 63.7703 124.801 64.4528C126.41 65.1362 127.73 66.0699 128.763 67.2544C129.795 68.4397 130.56 69.8256 131.057 71.4115C131.553 72.9992 131.802 74.6956 131.802 76.5028Z" fill="#002855"/>
</svg>
