<svg width="35" height="35" viewBox="0 0 35 35" fill="none" xmlns="http://www.w3.org/2000/svg">
<path d="M17.529 4.13397e-06C27.2052 0.00656725 35.0088 7.86043 35 17.5826C34.9924 27.2063 27.1145 35.0088 17.4164 35C7.79483 34.9923 -0.0196522 27.1024 3.71254e-05 17.4163C0.0197265 7.80245 7.88015 -0.00655898 17.529 4.13397e-06ZM29.1851 27.3255C31.2777 24.8064 32.4579 21.9317 32.7204 18.6392C30.9725 18.6392 29.3043 18.6392 27.6526 18.6392C27.6198 18.7027 27.5914 18.7322 27.5903 18.765C27.4667 20.9287 27.1976 23.0704 26.608 25.163C26.5752 25.28 26.6528 25.4988 26.7513 25.5721C27.5356 26.1595 28.3396 26.7217 29.1851 27.3255ZM7.35729 16.3717C7.39229 16.2798 7.41526 16.247 7.41636 16.2131C7.53012 14.0659 7.80358 11.9438 8.38332 9.86655C8.41942 9.73638 8.33738 9.49792 8.23018 9.41698C7.44808 8.82739 6.6441 8.26406 5.84449 7.69088C3.96197 9.56465 1.93834 14.6106 2.38135 16.3717C4.03198 16.3717 5.68588 16.3717 7.35729 16.3717ZM29.1818 7.67557C28.356 8.26734 27.5509 8.82739 26.771 9.42136C26.6605 9.50558 26.6113 9.76264 26.6397 9.92015C26.864 11.1693 27.1451 12.4098 27.3463 13.6633C27.4896 14.5526 27.5356 15.4583 27.6264 16.3586C29.3317 16.3586 31.0009 16.3586 32.7303 16.3586C32.4404 13.0551 31.2766 10.1674 29.1818 7.67557ZM5.81824 27.3255C6.64847 26.7294 7.44042 26.1803 8.20284 25.594C8.32207 25.5021 8.38004 25.2286 8.35051 25.0602C8.16783 24.0429 7.91406 23.0376 7.75545 22.0171C7.58372 20.9079 7.48965 19.7867 7.35948 18.6524C5.68151 18.6524 4.00135 18.6524 2.27306 18.6524C2.55965 21.9482 3.7257 24.8228 5.81824 27.3255ZM16.3663 12.1965C14.382 11.7217 12.4525 11.2601 10.466 10.7854C9.95847 12.4995 9.75501 14.4017 9.65 16.352C11.9001 16.352 14.125 16.352 16.3663 16.352C16.3663 14.8972 16.3663 13.485 16.3663 12.1965ZM16.3488 22.8079C16.3488 21.4942 16.3488 20.0689 16.3488 18.6458C14.0921 18.6458 11.8815 18.6458 9.65 18.6458C9.75611 20.6038 9.95847 22.5049 10.466 24.2135C12.459 23.7377 14.3886 23.2772 16.3488 22.8079ZM24.638 10.7613C22.5214 11.2689 20.594 11.7305 18.6393 12.1986C18.6393 13.5113 18.6393 14.9223 18.6393 16.3629C20.8839 16.3629 23.0945 16.3629 25.4496 16.3629C25.1696 14.4268 24.8961 12.5388 24.638 10.7613ZM24.6281 24.3579C24.9016 22.4524 25.1718 20.5655 25.4474 18.6425C23.0858 18.6425 20.8751 18.6425 18.6491 18.6425C18.6491 20.1017 18.6491 21.5248 18.6491 22.9173C19.6598 23.0879 20.6367 23.2017 21.5861 23.4292C22.5509 23.6611 23.4894 24.0046 24.6281 24.3579ZM18.6283 32.5334C20.6454 32.238 22.9786 29.0757 23.752 26.5019C22.121 25.8051 20.4463 25.3041 18.6283 25.2538C18.6283 27.7335 18.6283 30.1324 18.6283 32.5334ZM18.6448 2.4732C18.6448 4.88734 18.6448 7.30147 18.6448 9.76154C20.4616 9.66091 22.1418 9.21243 23.753 8.48502C23.0092 6.02932 20.6979 2.75979 18.6448 2.4732ZM16.3684 25.2352C14.5308 25.3511 12.8495 25.7832 11.2448 26.5216C11.9646 28.8755 14.2628 32.2599 16.3684 32.5148C16.3684 30.1149 16.3684 27.716 16.3684 25.2352ZM16.3695 2.35616C13.5386 3.5233 12.3015 5.89259 11.1814 8.4533C12.8659 9.21243 14.5505 9.66747 16.3695 9.75607C16.3695 7.27959 16.3695 4.87968 16.3695 2.35616ZM25.8675 7.35835C26.4275 6.93175 26.9832 6.50733 27.5804 6.05229C26.4155 5.01204 25.1816 4.20368 23.8187 3.60862C24.4958 4.84905 25.1608 6.06542 25.8675 7.35835ZM11.1158 31.4855C11.1311 31.4406 11.1453 31.3958 11.1606 31.3498C10.4945 30.1302 9.8283 28.9105 9.1348 27.6417C8.57803 28.0661 8.02126 28.4905 7.31682 29.0276C8.64585 29.8884 9.88081 30.6869 11.1158 31.4855ZM23.8154 31.399C25.1915 30.7744 26.4395 29.988 27.5804 28.9368C26.9613 28.4719 26.4034 28.0529 25.862 27.6471C25.163 28.9291 24.4991 30.1466 23.8154 31.399ZM9.13589 7.35179C9.83705 6.07089 10.5043 4.85015 11.1912 3.5955C9.80971 4.23431 8.55724 5.00875 7.42511 6.06432C8.02891 6.51827 8.59006 6.9405 9.13589 7.35179Z" fill="#292B2E"/>
</svg>
