<svg width="70" height="70" viewBox="0 0 70 70" fill="none" xmlns="http://www.w3.org/2000/svg">
<g clip-path="url(#clip0_788_1399)">
<circle cx="35" cy="35" r="34" fill="white" stroke="#E1E1E1" stroke-width="2"/>
<g clip-path="url(#clip1_788_1399)">
<path d="M25.1368 46.9545C24.8231 44.9124 24.8205 44.998 22.2816 44.9498C20.732 44.9204 20.8339 45.8812 20.8419 46.8582C19.4585 46.9679 19.0162 46.5611 19.0108 45.1292C18.9947 41.3821 19.0055 37.635 19.0055 33.8879C19.0055 30.8555 19.0135 27.8204 19.0028 24.7879C18.9974 23.6022 19.4907 22.9545 20.74 23.0027C21.0457 25.0636 21.0457 24.9913 23.5551 25.0288C25.0349 25.0529 25.1234 24.2178 24.976 23.0509C31.6623 23.0509 38.2467 23.0509 44.8312 23.0509C45.2816 25.093 45.2816 25.002 47.7963 25.0341C49.4103 25.0556 49.0778 23.9368 49.2199 23.0107C50.3513 22.9411 50.9867 23.4336 50.9921 24.5203C51.0135 31.4791 51.0081 38.438 51.0001 45.3968C51.0001 46.4888 50.4022 46.9973 49.3299 47C48.866 44.9017 48.866 44.9017 46.3915 44.9819C45.169 45.0221 45.169 45.0221 44.8741 46.9545C38.295 46.9545 31.7105 46.9545 25.1368 46.9545ZM34.866 33.5721C36.8285 33.5721 38.791 33.5587 40.7534 33.5775C41.673 33.5855 42.1529 33.2884 42.1154 32.2553C42.0537 30.5637 42.0725 28.8695 42.11 27.178C42.1288 26.2974 41.8473 25.8585 40.8929 25.8638C36.9679 25.8879 33.043 25.8879 29.1154 25.8638C28.169 25.8585 27.8714 26.2841 27.8929 27.1726C27.9304 28.8642 27.9492 30.5584 27.8875 32.2499C27.85 33.275 28.3191 33.5882 29.2441 33.5775C31.1181 33.5587 32.9921 33.5721 34.866 33.5721ZM34.9197 44.1094C36.8821 44.1094 38.8446 44.0907 40.8071 44.1174C41.6864 44.1308 42.1315 43.8444 42.11 42.8889C42.0671 41.1519 42.0698 39.4149 42.11 37.6778C42.1315 36.8374 41.8205 36.4145 40.9706 36.4145C37.0001 36.4145 33.0296 36.4145 29.0591 36.4145C28.2307 36.4145 27.8687 36.7866 27.8902 37.6484C27.9331 39.3854 27.9331 41.1225 27.8902 42.8595C27.8687 43.7909 28.2601 44.1335 29.1636 44.1174C31.0832 44.088 33.0028 44.1094 34.9197 44.1094ZM24.9947 35.0174C24.9947 32.9298 24.9947 32.9298 22.9894 32.9271C20.8687 32.9244 20.8687 32.9244 20.866 34.8996C20.866 37.0569 20.866 37.0569 22.9384 37.0569C24.9947 37.0569 24.9947 37.0569 24.9947 35.0174ZM49.1368 35.0442C49.1368 32.9298 49.1368 32.9298 47.1583 32.9271C45.0108 32.9244 45.0108 32.9244 45.0081 34.8729C45.0055 37.0569 45.0055 37.0569 47.0537 37.0569C49.1368 37.0569 49.1368 37.0569 49.1368 35.0442ZM22.8124 30.992C24.9921 30.992 24.9921 30.992 24.9947 29.1158C24.9974 26.9398 24.9974 26.9398 23.1154 26.9398C20.8687 26.9371 20.8687 26.9371 20.866 28.8802C20.866 30.9893 20.866 30.9893 22.8124 30.992ZM47.1181 26.9398C45.0108 26.9398 45.0108 26.9398 45.0081 28.8883C45.0081 30.992 45.0081 30.992 46.9599 30.992C49.1341 30.992 49.1341 30.992 49.1341 28.9766C49.1368 26.9398 49.1368 26.9398 47.1181 26.9398ZM23.0215 38.9947C20.8687 38.9947 20.8687 38.9947 20.8687 40.8976C20.866 43.0442 20.866 43.0442 22.7776 43.0469C24.9974 43.0469 24.9974 43.0469 24.9974 41.077C24.9947 38.9947 24.9947 38.9947 23.0215 38.9947ZM47.0859 43.0442C49.1341 43.0442 49.1341 43.0442 49.1368 41.1706C49.1395 38.992 49.1395 38.992 47.2602 38.992C45.0108 38.9893 45.0108 38.9893 45.0108 40.9298C45.0081 43.0442 45.0081 43.0442 47.0859 43.0442Z" fill="#15D85E"/>
</g>
</g>
<defs>
<clipPath id="clip0_788_1399">
<rect width="70" height="70" fill="white"/>
</clipPath>
<clipPath id="clip1_788_1399">
<rect width="32" height="24" fill="white" transform="translate(19 23)"/>
</clipPath>
</defs>
</svg>
