<svg width="225" height="154" viewBox="0 0 225 154" fill="none" xmlns="http://www.w3.org/2000/svg">
<rect x="2.21828" y="1.59914" width="220.682" height="150.319" rx="17.5906" fill="white" stroke="#D9D9D9" stroke-width="3.19828"/>
<path fill-rule="evenodd" clip-rule="evenodd" d="M114.157 109.745C106.535 116.323 96.6479 120.294 85.844 120.294C61.7375 120.294 42.1953 100.525 42.1953 76.1383C42.1953 51.752 61.7375 31.9829 85.844 31.9829C96.6479 31.9829 106.535 35.9537 114.157 42.5313C121.779 35.9537 131.666 31.9829 142.47 31.9829C166.576 31.9829 186.119 51.752 186.119 76.1383C186.119 100.525 166.576 120.294 142.47 120.294C131.666 120.294 121.779 116.323 114.157 109.745Z" fill="#ED0006"/>
<path fill-rule="evenodd" clip-rule="evenodd" d="M114.158 109.745C123.543 101.646 129.494 89.5954 129.494 76.1383C129.494 62.6812 123.543 50.6302 114.158 42.5313C121.78 35.9537 131.667 31.9829 142.471 31.9829C166.578 31.9829 186.12 51.752 186.12 76.1383C186.12 100.525 166.578 120.294 142.471 120.294C131.667 120.294 121.78 116.323 114.158 109.745Z" fill="#F9A000"/>
<path fill-rule="evenodd" clip-rule="evenodd" d="M114.158 109.745C123.543 101.646 129.494 89.5954 129.494 76.1383C129.494 62.6812 123.543 50.6302 114.158 42.5312C104.773 50.6302 98.8223 62.6812 98.8223 76.1383C98.8223 89.5954 104.773 101.646 114.158 109.745Z" fill="#FF5E00"/>
</svg>
