<svg width="70" height="70" viewBox="0 0 70 70" fill="none" xmlns="http://www.w3.org/2000/svg">
<g clip-path="url(#clip0_554_7414)">
<circle cx="35" cy="35" r="34" fill="white" stroke="#E1E1E1" stroke-width="2"/>
<g clip-path="url(#clip1_554_7414)">
<path d="M25.3006 42.1295C25.3006 41.9284 25.3006 41.3354 25.3006 40.739C25.3006 36.5007 25.3265 32.259 25.2876 28.0207C25.2746 26.5867 25.7706 25.7993 27.1773 25.3872C32.9112 23.702 38.6159 21.8994 44.3368 20.1706C46.1065 19.6378 46.9882 20.3448 46.9914 22.2881C47.0076 28.9253 46.9979 35.5659 46.9947 42.2032C46.9947 42.4277 47.0012 42.6521 46.9687 42.8699C46.7062 44.7428 44.4729 46.1902 41.7762 46.2405C39.0697 46.2941 36.6322 44.84 36.3145 42.9872C35.9839 41.0573 37.8574 39.1375 40.3565 38.9231C41.3159 38.8393 42.285 38.9097 43.3838 38.9097C43.3838 35.2912 43.3838 31.7699 43.3838 28.0475C39.6596 29.1665 36.0585 30.2353 32.4639 31.3276C28.8142 32.4366 28.8174 32.45 28.8174 36.3566C28.8174 39.2012 28.8206 42.0457 28.8174 44.8902C28.8142 47.8722 27.9779 49.0817 25.226 49.7551C23.2845 50.2309 21.3559 50.0667 19.6283 48.9108C17.4858 47.4734 17.4145 44.8366 19.6866 43.6673C21.2943 42.8364 23.2229 42.6689 25.3006 42.1295Z" fill="#15D85E"/>
</g>
</g>
<defs>
<clipPath id="clip0_554_7414">
<rect width="70" height="70" fill="white"/>
</clipPath>
<clipPath id="clip1_554_7414">
<rect width="29" height="30" fill="white" transform="translate(18 20)"/>
</clipPath>
</defs>
</svg>
