<svg width="225" height="154" viewBox="0 0 225 154" fill="none" xmlns="http://www.w3.org/2000/svg">
<rect x="1.97805" y="1.59914" width="220.682" height="150.319" rx="17.5906" fill="white" stroke="#D9D9D9" stroke-width="3.19828"/>
<path fill-rule="evenodd" clip-rule="evenodd" d="M63.7053 97.4897H53.7547C53.0738 97.4897 52.4947 97.9846 52.3885 98.6566L48.364 124.173C48.284 124.677 48.6739 125.13 49.1846 125.13H53.9351C54.616 125.13 55.1952 124.635 55.3014 123.962L56.3868 117.08C56.4915 116.406 57.0721 115.912 57.7516 115.912H60.9016C67.4564 115.912 71.2391 112.74 72.2276 106.454C72.6727 103.705 72.2464 101.544 70.9584 100.03C69.5444 98.3691 67.0356 97.4897 63.7053 97.4897ZM64.8533 106.809C64.3093 110.38 61.5811 110.38 58.9432 110.38H57.4416L58.4951 103.711C58.5576 103.309 58.9068 103.012 59.3142 103.012H60.0024C61.7993 103.012 63.4946 103.012 64.3706 104.036C64.8924 104.647 65.0526 105.555 64.8533 106.809ZM93.4501 106.695H88.685C88.279 106.695 87.9282 106.992 87.8655 107.395L87.6548 108.728L87.3215 108.245C86.29 106.747 83.9899 106.247 81.6939 106.247C76.4278 106.247 71.9306 110.235 71.0547 115.83C70.5995 118.62 71.2466 121.288 72.8295 123.149C74.2819 124.86 76.3598 125.573 78.8315 125.573C83.0742 125.573 85.4274 122.845 85.4274 122.845L85.2147 124.17C85.1345 124.676 85.5244 125.13 86.0321 125.13H90.3245C91.0073 125.13 91.583 124.635 91.6907 123.961L94.2662 107.652C94.3476 107.151 93.9591 106.695 93.4501 106.695ZM86.8077 115.969C86.3479 118.691 84.1872 120.519 81.4319 120.519C80.0482 120.519 78.942 120.075 78.2323 119.234C77.528 118.399 77.26 117.21 77.4842 115.886C77.9138 113.187 80.1109 111.3 82.8244 111.3C84.1771 111.3 85.2773 111.749 86.0018 112.598C86.7276 113.455 87.0158 114.651 86.8077 115.969ZM114.04 106.694H118.828C119.499 106.694 119.89 107.446 119.509 107.996L103.583 130.985C103.325 131.357 102.9 131.579 102.446 131.579H97.6638C96.9904 131.579 96.5972 130.821 96.9871 130.269L101.946 123.269L96.672 107.791C96.4895 107.253 96.8867 106.694 97.4591 106.694H102.164C102.776 106.694 103.315 107.095 103.491 107.681L106.29 117.029L112.895 107.301C113.154 106.921 113.583 106.694 114.04 106.694Z" fill="#253B80"/>
<path fill-rule="evenodd" clip-rule="evenodd" d="M165.957 124.173L170.041 98.1899C170.104 97.7866 170.453 97.4896 170.859 97.4883H175.457C175.964 97.4883 176.354 97.9434 176.274 98.4471L172.247 123.962C172.142 124.635 171.563 125.13 170.881 125.13H166.775C166.267 125.13 165.877 124.676 165.957 124.173ZM134.682 97.4896H124.73C124.05 97.4896 123.471 97.9845 123.365 98.6565L119.341 124.173C119.26 124.676 119.65 125.13 120.159 125.13H125.265C125.74 125.13 126.146 124.784 126.22 124.313L127.362 117.08C127.467 116.406 128.047 115.912 128.727 115.912H131.875C138.431 115.912 142.213 112.74 143.202 106.454C143.649 103.704 143.22 101.544 141.933 100.03C140.519 98.369 138.013 97.4896 134.682 97.4896ZM135.83 106.809C135.288 110.38 132.559 110.38 129.92 110.38H128.42L129.475 103.711C129.537 103.308 129.883 103.012 130.292 103.012H130.98C132.776 103.012 134.473 103.012 135.348 104.036C135.871 104.647 136.03 105.555 135.83 106.809ZM164.424 106.695H159.663C159.253 106.695 158.906 106.992 158.844 107.395L158.634 108.727L158.299 108.245C157.268 106.747 154.969 106.247 152.673 106.247C147.407 106.247 142.911 110.235 142.035 115.83C141.581 118.62 142.226 121.288 143.808 123.149C145.264 124.86 147.339 125.573 149.811 125.573C154.053 125.573 156.406 122.845 156.406 122.845L156.194 124.169C156.113 124.676 156.503 125.13 157.014 125.13H161.305C161.984 125.13 162.563 124.635 162.67 123.961L165.246 107.652C165.325 107.15 164.935 106.695 164.424 106.695ZM157.783 115.969C157.325 118.691 155.162 120.519 152.406 120.519C151.025 120.519 149.917 120.075 149.207 119.234C148.502 118.399 148.238 117.21 148.459 115.886C148.891 113.187 151.085 111.3 153.799 111.3C155.152 111.3 156.252 111.749 156.977 112.598C157.705 113.455 157.993 114.651 157.783 115.969Z" fill="#179BD7"/>
<path d="M100.531 88.3615L101.755 80.5914L99.0296 80.5281H86.0176L95.0603 23.1903C95.0879 23.0172 95.1795 22.8558 95.3128 22.7412C95.4461 22.6266 95.6172 22.5635 95.7949 22.5635H117.735C125.019 22.5635 130.046 24.0792 132.67 27.0708C133.9 28.4743 134.684 29.9409 135.063 31.5548C135.46 33.2484 135.468 35.2717 135.079 37.7394L135.051 37.9195V39.5007L136.282 40.1978C137.318 40.7474 138.141 41.3766 138.773 42.0971C139.826 43.297 140.506 44.8221 140.794 46.6302C141.091 48.4898 140.992 50.7025 140.506 53.2077C139.945 56.0894 139.037 58.5993 137.812 60.653C136.684 62.5453 135.248 64.1145 133.543 65.3312C131.915 66.4866 129.98 67.3639 127.793 67.9255C125.674 68.4769 123.258 68.7557 120.608 68.7557H118.9C117.679 68.7557 116.493 69.1954 115.562 69.9838C114.629 70.7884 114.011 71.8873 113.822 73.0899L113.693 73.7894L111.532 87.4842L111.434 87.9872C111.408 88.1467 111.364 88.2262 111.298 88.2801C111.24 88.3285 111.155 88.3615 111.073 88.3615H100.531Z" fill="#253B80"/>
<path d="M137.448 38.1025C137.382 38.5212 137.308 38.9492 137.224 39.389C134.33 54.2445 124.431 59.3764 111.788 59.3764H105.351C103.805 59.3764 102.502 60.4991 102.261 62.0242L98.9653 82.9264L98.032 88.851C97.8751 89.8522 98.6474 90.7552 99.6574 90.7552H111.075C112.427 90.7552 113.575 89.7728 113.788 88.4396L113.9 87.8592L116.05 74.2176L116.188 73.4696C116.398 72.1317 117.549 71.1493 118.901 71.1493H120.609C131.67 71.1493 140.33 66.6582 142.861 53.6621C143.918 48.233 143.37 43.7 140.573 40.5118C139.726 39.5504 138.676 38.7528 137.448 38.1025Z" fill="#179BD7"/>
<path d="M134.42 36.8964C133.978 36.7678 133.522 36.6508 133.054 36.5456C132.584 36.4427 132.102 36.3515 131.606 36.2719C129.87 35.9912 127.969 35.8579 125.931 35.8579H108.734C108.311 35.8579 107.909 35.9538 107.549 36.1269C106.756 36.5081 106.166 37.259 106.024 38.1783L102.365 61.3492L102.26 62.0251C102.501 60.5 103.804 59.3773 105.35 59.3773H111.787C124.43 59.3773 134.329 54.243 137.222 39.3899C137.308 38.9502 137.381 38.5221 137.446 38.1034C136.714 37.7151 135.921 37.383 135.067 37.0999C134.857 37.0298 134.64 36.962 134.42 36.8964Z" fill="#222D65"/>
<path d="M106.023 38.178C106.165 37.2587 106.755 36.5079 107.548 36.1289C107.911 35.9558 108.311 35.8599 108.734 35.8599H125.931C127.968 35.8599 129.87 35.9932 131.605 36.2739C132.101 36.3535 132.583 36.4447 133.053 36.5476C133.521 36.6529 133.977 36.7698 134.419 36.8984C134.639 36.964 134.856 37.0318 135.069 37.0996C135.923 37.3826 136.716 37.7171 137.448 38.1031C138.309 32.6133 137.441 28.8755 134.473 25.4908C131.201 21.7647 125.295 20.1694 117.737 20.1694H95.7963C94.2523 20.1694 92.936 21.2921 92.697 22.8196L83.5586 80.7467C83.3782 81.8927 84.2622 82.927 85.4177 82.927H98.9636L102.365 61.3488L106.023 38.178Z" fill="#253B80"/>
</svg>
