<svg width="234" height="255" viewBox="0 0 234 255" fill="none" xmlns="http://www.w3.org/2000/svg">
<mask id="mask0_251_3066" style="mask-type:luminance" maskUnits="userSpaceOnUse" x="0" y="0" width="234" height="255">
<path d="M0.000778198 0H233.801V254.1H0.000778198V0Z" fill="white"/>
</mask>
<g mask="url(#mask0_251_3066)">
<path d="M72.5002 90L93.6002 93.5C93.6002 93.5 97.2002 73.9 99.2002 66C101.5 56.8 108.3 53.4 110.4 52.5L119.9 49.7L137.7 50C137.7 50 156.4 51.2 160.7 60.5C164.1 67.7999 172.7 83.5 176.6 94.8C178.8 101.2 176.8 109.9 173.1 110.9H158.3L158.2 115.4L114.9 115.7L108.6 97C106.7 104.3 99.6002 109.2 92.0002 108.3L68.8002 105.6L72.5002 90Z" fill="white"/>
</g>
<mask id="mask1_251_3066" style="mask-type:luminance" maskUnits="userSpaceOnUse" x="0" y="0" width="234" height="255">
<path d="M0.000778198 0H233.801V254.1H0.000778198V0Z" fill="white"/>
</mask>
<g mask="url(#mask1_251_3066)">
<path d="M72.5001 90C72.5001 90 72.4001 90.2999 72.2001 91C72.0001 91.7 71.8001 92.7 71.4001 94C70.7001 96.7 69.7001 100.6 68.5001 105.6C68.5001 105.7 68.5001 105.7 68.6001 105.7C73.9001 106.3 80.4001 107.1 87.9001 108C89.8001 108.2 91.7001 108.6 93.8001 108.6C95.9001 108.6 98.0001 108.1 100 107.3C102 106.4 103.8 105 105.4 103.3C106.9 101.6 108.1 99.3999 108.7 97.0999H108.3C110.3 102.9 112.4 109.2 114.6 115.8C114.6 115.9 114.7 116 114.8 116C128 115.9 142.6 115.8 158.1 115.7C158.2 115.7 158.3 115.6 158.4 115.5C158.4 114.1 158.5 112.5 158.5 111L158.2 111.3C162.9 111.3 167.9 111.3 173 111.3C173 111.3 173 111.3 173.1 111.3C174.5 110.8 175.4 109.6 176.1 108.4C176.7 107.1 177.1 105.8 177.4 104.4C177.9 101.6 177.9 98.7 177.1 95.8C176 92.1 174.5 88.6999 172.9 85.1999C171.4 81.7999 169.8 78.3999 168.2 75.1999C166.6 71.8999 164.9 68.7 163.3 65.5C162.5 63.9 161.7 62.3 161 60.7C160.3 59.1 159.1 57.6 157.8 56.5C155.1 54.2 151.8 52.9 148.6 51.9C145.3 50.9 142.1 50.3 138.8 50C138 49.9 137.2 49.9 136.4 49.9C135.6 49.9 134.8 49.9 134 49.9C132.4 49.9 130.8 49.7999 129.2 49.7999C126.1 49.6999 123 49.7 120 49.7C120 49.7 120 49.7 119.9 49.7C116.6 50.7 113.5 51.5999 110.4 52.5999C110.3 52.5999 110.3 52.7 110.3 52.7L110.4 52.5999C105.9 54.4999 102.5 58 100.6 62C99.6001 64 99.1001 66.0999 98.6001 68.0999C98.1001 70.0999 97.7001 72.1 97.3001 74C95.7001 81.6 94.5001 88.3 93.5001 93.8L93.6001 93.6999C86.8001 92.5999 81.5001 91.6999 77.9001 91.0999C76.1001 90.7999 74.8001 90.5999 73.8001 90.5C73.0001 90.0999 72.5001 90 72.5001 90C72.5001 90 73.0001 90.1 73.9001 90.3C74.8001 90.5 76.2001 90.7 78.0001 91C81.6001 91.5999 86.8001 92.4999 93.6001 93.6999C93.7001 93.6999 93.7001 93.6999 93.7001 93.5999C94.7001 88 96.0001 81.4 97.6001 73.8C98.0001 71.9 98.4001 69.9 98.9001 67.9C99.4001 65.9 99.9001 63.9 100.9 61.9C102.7 58 106.1 54.6 110.5 52.7C110.6 52.7 110.6 52.5999 110.6 52.5999L110.5 52.7C113.6 51.8 116.8 50.8 120 49.9H119.9C122.9 50 126 49.9999 129.1 50.0999C130.7 50.0999 132.3 50.2 133.9 50.2C134.7 50.2 135.5 50.2 136.3 50.2C137.1 50.2 137.9 50.1999 138.7 50.2999C141.9 50.5999 145.2 51.3 148.4 52.2C151.6 53.2 154.8 54.5 157.4 56.7C160.2 58.8 161.1 62.4 162.8 65.5C164.4 68.7 166 71.8999 167.6 75.1999C169.2 78.4999 170.8 81.7999 172.3 85.1999C173.8 88.5999 175.3 92.0999 176.4 95.6999C177.1 98.3999 177.2 101.3 176.7 104C176.4 105.4 176.1 106.7 175.4 107.9C174.8 109.1 173.9 110.2 172.7 110.5H172.8C167.7 110.5 162.7 110.5 158 110.5C157.9 110.5 157.7 110.6 157.7 110.8C157.7 112.4 157.6 113.9 157.6 115.3L157.9 115.1C142.4 115.2 127.8 115.3 114.6 115.4L114.8 115.6C112.6 109 110.4 102.8 108.5 97C108.5 96.9 108.3 96.8 108.2 96.9C108.1 96.9 108.1 97 108.1 97C107.5 99.2999 106.4 101.4 104.9 103.1C103.4 104.8 101.6 106.1 99.7001 107C97.8001 107.9 95.7001 108.3 93.7001 108.3C91.7001 108.3 89.7001 107.9 87.8001 107.8C80.2001 106.9 73.7001 106.2 68.5001 105.6L68.6001 105.7C69.8001 100.7 70.8001 96.7999 71.4001 94.0999C71.7001 92.7999 72.0001 91.7999 72.1001 91.0999C72.4001 90.3999 72.5001 90 72.5001 90Z" fill="#292B2E"/>
</g>
<mask id="mask2_251_3066" style="mask-type:luminance" maskUnits="userSpaceOnUse" x="0" y="0" width="234" height="255">
<path d="M0.000778198 0H233.801V254.1H0.000778198V0Z" fill="white"/>
</mask>
<g mask="url(#mask2_251_3066)">
<path d="M134.501 103.9L126.701 100.8C121.101 102.9 117.501 99.3001 117.501 99.3001C117.501 99.3001 115.101 101.8 114.101 102.3C112.901 102.9 111.601 101.1 111.601 101.1C111.601 101.1 110.401 102 109.501 102C108.601 102 108.301 101.3 108.301 101.3C108.301 101.3 107.301 101.8 106.501 101.6C105.701 101.5 105.701 100.7 105.701 100.7C105.701 100.7 104.801 101.5 103.901 101C103.001 100.5 103.301 99.3001 103.301 99.3001C103.301 99.3001 110.501 93.8001 112.701 92.4001C114.901 91.0001 127.701 92.4001 127.701 92.4001L135.201 93.0001L134.501 103.9Z" fill="white"/>
</g>
<mask id="mask3_251_3066" style="mask-type:luminance" maskUnits="userSpaceOnUse" x="0" y="0" width="234" height="255">
<path d="M0.000778198 0H233.801V254.1H0.000778198V0Z" fill="white"/>
</mask>
<g mask="url(#mask3_251_3066)">
<path d="M134.501 103.9L126.701 100.8C121.101 102.9 117.501 99.3001 117.501 99.3001C117.501 99.3001 115.101 101.8 114.101 102.3C112.901 102.9 111.601 101.1 111.601 101.1C111.601 101.1 110.401 102 109.501 102C108.601 102 108.301 101.3 108.301 101.3C108.301 101.3 107.301 101.8 106.501 101.6C105.701 101.5 105.701 100.7 105.701 100.7C105.701 100.7 104.801 101.5 103.901 101C103.001 100.5 103.301 99.3001 103.301 99.3001C103.301 99.3001 110.501 93.8001 112.701 92.4001C114.901 91.0001 127.701 92.4001 127.701 92.4001L135.201 93.0001L134.501 103.9Z" stroke="#292B2E" stroke-width="0.5" stroke-miterlimit="10" stroke-linecap="round" stroke-linejoin="round"/>
</g>
<mask id="mask4_251_3066" style="mask-type:luminance" maskUnits="userSpaceOnUse" x="0" y="0" width="234" height="255">
<path d="M0.000778198 0H233.801V254.1H0.000778198V0Z" fill="white"/>
</mask>
<g mask="url(#mask4_251_3066)">
<path d="M158.601 110.3C158.601 110.3 158.401 110.3 158.101 110.3C157.801 110.3 157.301 110.3 156.801 110.3C155.601 110.3 153.901 110.2 151.701 110.2C147.301 110.1 141.201 110.1 134.101 110L134.301 110.3C134.601 106.4 134.801 102.2 135.101 97.9001C135.201 96.2001 135.301 94.6001 135.401 92.9001L135.101 93.1001C142.801 93.1001 149.801 93.1001 155.201 93.1001H155.301C156.901 92.3001 158.601 91.9001 160.001 91.9001C161.401 91.8001 162.701 92.0001 163.701 92.3001C165.701 92.8001 166.601 93.5001 166.701 93.5001C166.701 93.5001 165.801 92.7001 163.801 92.1001C162.801 91.8001 161.501 91.6001 160.101 91.6001C158.601 91.6001 156.901 92.0001 155.301 92.8001H155.401C150.001 92.8001 143.001 92.7001 135.301 92.6001C135.201 92.6001 135.001 92.7001 135.001 92.8001C134.901 94.4001 134.801 96.1001 134.701 97.8001C134.401 102.2 134.201 106.4 133.901 110.3C133.901 110.4 134.001 110.6 134.101 110.6C141.201 110.6 147.301 110.6 151.701 110.6C153.801 110.6 155.501 110.6 156.801 110.6C157.401 110.6 157.801 110.6 158.101 110.6C158.501 110.3 158.601 110.3 158.601 110.3Z" fill="#292B2E"/>
</g>
<mask id="mask5_251_3066" style="mask-type:luminance" maskUnits="userSpaceOnUse" x="0" y="0" width="234" height="255">
<path d="M0.000778198 0H233.801V254.1H0.000778198V0Z" fill="white"/>
</mask>
<g mask="url(#mask5_251_3066)">
<path d="M155.301 92.8C155.401 92.8 155.001 91.6 154.401 89.7C153.701 87.8 152.701 85.3 151.401 82.6C150.201 79.9 149.101 77.4 148.301 75.6C147.501 73.8 147.101 72.7 147.001 72.7C146.901 72.7 147.301 73.9 147.901 75.8C148.601 77.7 149.601 80.2 150.901 82.9C152.101 85.6 153.201 88.1 154.001 89.9C154.801 91.7 155.301 92.9 155.301 92.8Z" fill="#292B2E"/>
</g>
<mask id="mask6_251_3066" style="mask-type:luminance" maskUnits="userSpaceOnUse" x="0" y="0" width="234" height="255">
<path d="M0.000778198 0H233.801V254.1H0.000778198V0Z" fill="white"/>
</mask>
<g mask="url(#mask6_251_3066)">
<path d="M148.001 75.3999L151.801 92.7999H155.301L148.001 75.3999Z" fill="#292B2E"/>
</g>
<mask id="mask7_251_3066" style="mask-type:luminance" maskUnits="userSpaceOnUse" x="0" y="0" width="234" height="255">
<path d="M0.000778198 0H233.801V254.1H0.000778198V0Z" fill="white"/>
</mask>
<g mask="url(#mask7_251_3066)">
<path d="M118.5 95.2C118.5 95.1 118 95 117.1 95.1C116.7 95.2 116.1 95.4 115.6 95.8C115.1 96.2 114.7 96.7 114.3 97.2C112.7 99.3 111.5 101.1 111.6 101.2C111.7 101.3 113.1 99.7 114.7 97.6C115.1 97.1 115.5 96.6 115.9 96.2C116.3 95.8 116.7 95.6 117.1 95.5C118 95.3 118.5 95.2 118.5 95.2Z" fill="#292B2E"/>
</g>
<mask id="mask8_251_3066" style="mask-type:luminance" maskUnits="userSpaceOnUse" x="0" y="0" width="234" height="255">
<path d="M0.000778198 0H233.801V254.1H0.000778198V0Z" fill="white"/>
</mask>
<g mask="url(#mask8_251_3066)">
<path d="M114.901 93.3C114.901 93.2 114.201 93.1 113.301 93.7C112.401 94.2 111.601 95.5 110.801 96.7C109.201 99.2 108.001 101.4 108.101 101.4C108.201 101.5 109.601 99.5 111.201 96.9C112.001 95.6 112.701 94.5 113.401 93.9C114.301 93.4 115.001 93.4 114.901 93.3Z" fill="#292B2E"/>
</g>
<mask id="mask9_251_3066" style="mask-type:luminance" maskUnits="userSpaceOnUse" x="0" y="0" width="234" height="255">
<path d="M0.000778198 0H233.801V254.1H0.000778198V0Z" fill="white"/>
</mask>
<g mask="url(#mask9_251_3066)">
<path d="M109.801 96.3001C109.701 96.2001 108.801 97.2001 107.701 98.4001C106.601 99.6001 105.701 100.6 105.801 100.7C105.901 100.8 107.001 100 108.101 98.8001C109.201 97.6001 109.901 96.4001 109.801 96.3001Z" fill="#292B2E"/>
</g>
<mask id="mask10_251_3066" style="mask-type:luminance" maskUnits="userSpaceOnUse" x="0" y="0" width="234" height="255">
<path d="M0.000778198 0H233.801V254.1H0.000778198V0Z" fill="white"/>
</mask>
<g mask="url(#mask10_251_3066)">
<path d="M108.001 94.4C108.101 94.4 107.601 93.1 107.101 90.9C106.601 88.8 106.101 85.7 106.001 82.4C105.901 79 106.201 76 106.601 73.8C107.001 71.6 107.401 70.3 107.301 70.3C107.301 70.3 107.101 70.6 106.901 71.2C106.701 71.8 106.501 72.7 106.201 73.7C105.701 75.9 105.301 78.9 105.401 82.4C105.501 85.8 106.101 88.9 106.701 91C107.001 92.1 107.301 92.9 107.501 93.5C107.801 94.1 108.001 94.4 108.001 94.4Z" fill="#292B2E"/>
</g>
<mask id="mask11_251_3066" style="mask-type:luminance" maskUnits="userSpaceOnUse" x="0" y="0" width="234" height="255">
<path d="M0.000778198 0H233.801V254.1H0.000778198V0Z" fill="white"/>
</mask>
<g mask="url(#mask11_251_3066)">
<path d="M145.9 68.9001C146 68.9001 145.5 67.8 145.3 66C145.2 65.1 145.2 64 145.4 62.8C145.6 61.6 146.1 60.4 146.9 59.3C147.8 58.3 149 57.6 150 57.1C151.1 56.6 152.2 56.3001 153.1 56.2001C154.9 56.0001 156 56.6 156 56.5C156 56.5 155.8 56.3 155.3 56.1C154.8 55.9 154 55.8 153.1 55.8C152.2 55.9 151 56.1 149.9 56.6C148.8 57.1 147.5 57.8001 146.6 58.9001C145.7 60.1001 145.2 61.4 145 62.6C144.8 63.8 144.9 65.0001 145 65.9001C145.2 66.8001 145.4 67.6 145.6 68C145.7 68.7 145.9 68.9001 145.9 68.9001Z" fill="#292B2E"/>
</g>
<mask id="mask12_251_3066" style="mask-type:luminance" maskUnits="userSpaceOnUse" x="0" y="0" width="234" height="255">
<path d="M0.000778198 0H233.801V254.1H0.000778198V0Z" fill="white"/>
</mask>
<g mask="url(#mask12_251_3066)">
<path d="M105 58.6999C104.9 58.7999 105.4 59.9999 106.1 61.4999C106.9 62.9999 107.6 64.1999 107.7 64.0999C107.8 63.9999 107.3 62.7999 106.6 61.2999C105.8 59.7999 105.1 58.5999 105 58.6999Z" fill="#292B2E"/>
</g>
<mask id="mask13_251_3066" style="mask-type:luminance" maskUnits="userSpaceOnUse" x="0" y="0" width="234" height="255">
<path d="M0.000778198 0H233.801V254.1H0.000778198V0Z" fill="white"/>
</mask>
<g mask="url(#mask13_251_3066)">
<path d="M95.4016 219.7C94.0016 215.7 92.6016 211.8 91.2016 207.8L72.8016 214.3L79.7016 231.4L93.5016 231.7L96.6016 223.2L95.4016 219.7Z" fill="white"/>
</g>
<mask id="mask14_251_3066" style="mask-type:luminance" maskUnits="userSpaceOnUse" x="0" y="0" width="234" height="255">
<path d="M0.000778198 0H233.801V254.1H0.000778198V0Z" fill="white"/>
</mask>
<g mask="url(#mask14_251_3066)">
<path d="M95.4008 219.7C95.4008 219.7 95.5008 220 95.7008 220.6C95.9008 221.3 96.2008 222.1 96.6008 223.3V223.2C95.8008 225.3 94.7008 228.2 93.4008 231.7L93.6008 231.6C89.7008 231.5 85.0008 231.4 79.8008 231.2L80.0008 231.4C78.6008 228 77.1008 224.2 75.5008 220.3C74.7008 218.2 73.8008 216.2 73.0008 214.3L72.8008 214.6C79.8008 212.1 86.2008 209.8 91.2008 208L91.0008 207.9C92.3008 211.5 93.4008 214.5 94.2008 216.6C94.6008 217.6 94.9008 218.4 95.1008 219C95.3008 219.4 95.4008 219.7 95.4008 219.7C95.4008 219.7 95.3008 219.4 95.2008 218.9C95.0008 218.3 94.7008 217.5 94.4008 216.5C93.7008 214.4 92.6008 211.4 91.4008 207.8C91.4008 207.7 91.3008 207.6 91.2008 207.7C86.2008 209.5 79.8008 211.7 72.8008 214.2C72.7008 214.2 72.6008 214.4 72.6008 214.5C73.4008 216.5 74.2008 218.5 75.0008 220.5C76.6008 224.4 78.1008 228.2 79.5008 231.6C79.5008 231.7 79.6008 231.8 79.7008 231.8C84.9008 231.9 89.6008 232 93.5008 232C93.6008 232 93.7008 231.9 93.7008 231.9C95.0008 228.4 96.0008 225.5 96.8008 223.4V223.3C96.4008 222.2 96.1008 221.3 95.8008 220.7C95.6008 220 95.4008 219.7 95.4008 219.7Z" fill="#292B2E"/>
</g>
<mask id="mask15_251_3066" style="mask-type:luminance" maskUnits="userSpaceOnUse" x="0" y="0" width="234" height="255">
<path d="M0.000778198 0H233.801V254.1H0.000778198V0Z" fill="white"/>
</mask>
<g mask="url(#mask15_251_3066)">
<path d="M107.602 242.5C105.002 234.9 102.302 230.6 99.8016 223C99.3016 221.6 98.7016 220.1 97.3016 219.7C96.0016 219.4 94.7016 220.3 94.0016 221.3C93.3016 222.4 92.9016 223.7 92.3016 224.9C90.9016 227.7 87.9016 229.5 84.8016 229.6C81.7016 229.7 78.6016 228 77.0016 225.3C72.2016 231.2 67.3016 237.1 62.5016 243C62.5016 243 56.6016 242.9 54.4016 245C52.9016 246.4 52.3016 247.5 52.0016 249.7C51.6016 252.9 52.8016 253.7 52.8016 253.7L75.9016 253.8L107.602 242.5Z" fill="#292B2E"/>
</g>
<mask id="mask16_251_3066" style="mask-type:luminance" maskUnits="userSpaceOnUse" x="0" y="0" width="234" height="255">
<path d="M0.000778198 0H233.801V254.1H0.000778198V0Z" fill="white"/>
</mask>
<g mask="url(#mask16_251_3066)">
<path d="M52.5012 253.4C52.2012 252.9 52.0012 252.3 51.9012 251.6L73.9012 251C91.1012 244.8 89.0012 244.7 106.201 238.5L106.701 239.8C107.001 240.7 107.301 241.5 107.701 242.5L75.9012 253.7L52.8012 253.6C52.7012 253.7 52.9012 254.1 52.5012 253.4Z" fill="white"/>
</g>
<mask id="mask17_251_3066" style="mask-type:luminance" maskUnits="userSpaceOnUse" x="0" y="0" width="234" height="255">
<path d="M0.000778198 0H233.801V254.1H0.000778198V0Z" fill="white"/>
</mask>
<g mask="url(#mask17_251_3066)">
<path d="M52.5 253.4C52.5 253.4 52.5 253.4 52.6 253.5C52.6 253.6 52.7 253.6 52.7 253.7C52.7 253.7 52.7 253.8 52.8 253.8C55 253.9 63.5 254 75.9 254C75.9 254 75.9 254 76 254C84.8 250.9 95.9 247 107.8 242.8C107.9 242.8 108 242.6 108 242.5C107.7 241.7 107.4 240.9 107.1 240C106.9 239.5 106.7 239 106.5 238.4C106.5 238.3 106.3 238.2 106.2 238.3C100.1 240.5 94.2 242.8 88.9 245.1C83.5 247.3 78.5 249.2 74 250.9H74.1C63.3 251.2 55.4 251.5 52.2 251.7C52.2 251.7 52.1 251.7 52.1 251.8C52.2 252.9 52.5 253.4 52.5 253.4C52.5 253.4 52.4 253.3 52.3 253C52.2 252.7 52 252.3 51.9 251.7L51.8 251.8C55 251.8 62.9 251.6 73.8 251.3C73.8 251.3 73.8 251.3 73.9 251.3C78.4 249.7 83.5 247.8 88.9 245.6C94.3 243.3 100.1 241.1 106.2 238.9L105.9 238.7C106.1 239.2 106.3 239.7 106.5 240.3C106.8 241.1 107.1 242 107.4 242.8L107.6 242.5C95.6 246.7 84.6 250.6 75.8 253.8H75.9C63.5 253.8 55 253.8 52.8 253.9V254C52.8 254 52.8 253.9 52.7 253.9C52.7 253.8 52.6 253.8 52.6 253.7C52.6 253.4 52.5 253.4 52.5 253.4Z" fill="#292B2E"/>
</g>
<mask id="mask18_251_3066" style="mask-type:luminance" maskUnits="userSpaceOnUse" x="0" y="0" width="234" height="255">
<path d="M0.000778198 0H233.801V254.1H0.000778198V0Z" fill="white"/>
</mask>
<g mask="url(#mask18_251_3066)">
<path d="M99.3008 181.9L91.6008 253.8H95.5008L106.801 181.9H99.3008Z" fill="#292B2E"/>
</g>
<mask id="mask19_251_3066" style="mask-type:luminance" maskUnits="userSpaceOnUse" x="0" y="0" width="234" height="255">
<path d="M0.000778198 0H233.801V254.1H0.000778198V0Z" fill="white"/>
</mask>
<g mask="url(#mask19_251_3066)">
<path d="M110.3 219.1V231.3L113.6 239.5L121.3 240.3L128.5 232.2V220.5L110.3 219.1Z" fill="white"/>
</g>
<mask id="mask20_251_3066" style="mask-type:luminance" maskUnits="userSpaceOnUse" x="0" y="0" width="234" height="255">
<path d="M0.000778198 0H233.801V254.1H0.000778198V0Z" fill="white"/>
</mask>
<g mask="url(#mask20_251_3066)">
<path d="M110.301 219.1C110.301 219.1 110.401 219.1 110.701 219.2C111.001 219.2 111.301 219.3 111.701 219.3C112.601 219.4 113.901 219.5 115.401 219.7C118.601 220 123.101 220.4 128.501 220.8L128.301 220.6C128.301 224.2 128.301 228.1 128.301 232.3L128.401 232.1C127.401 233.3 126.301 234.5 125.201 235.7C123.801 237.2 122.501 238.7 121.201 240.2L121.401 240.1C118.701 239.8 116.201 239.6 113.801 239.3L114.001 239.4C112.701 236.4 111.601 233.7 110.601 231.2V231.3C110.601 227.6 110.501 224.6 110.501 222.4C110.501 221.4 110.501 220.6 110.501 219.9C110.301 219.4 110.301 219.1 110.301 219.1C110.301 219.1 110.301 219.4 110.301 219.9C110.301 220.5 110.301 221.3 110.301 222.3C110.301 224.5 110.201 227.5 110.201 231.3V231.4C111.201 233.8 112.301 236.6 113.501 239.6C113.501 239.7 113.601 239.7 113.701 239.7C116.101 240 118.701 240.2 121.301 240.5C121.401 240.5 121.501 240.5 121.501 240.4C122.801 238.9 124.101 237.4 125.501 235.9C126.601 234.7 127.701 233.5 128.701 232.3C128.701 232.3 128.801 232.2 128.801 232.1C128.801 227.9 128.801 224 128.801 220.4C128.801 220.3 128.701 220.2 128.601 220.2C123.201 219.8 118.601 219.5 115.401 219.3C113.901 219.2 112.601 219.1 111.701 219.1C111.301 219.1 111.001 219.1 110.701 219.1C110.401 219.1 110.301 219.1 110.301 219.1Z" fill="#292B2E"/>
</g>
<mask id="mask21_251_3066" style="mask-type:luminance" maskUnits="userSpaceOnUse" x="0" y="0" width="234" height="255">
<path d="M0.000778198 0H233.801V254.1H0.000778198V0Z" fill="white"/>
</mask>
<g mask="url(#mask21_251_3066)">
<path d="M131.802 249.8C132.002 242.3 130.902 237.5 131.102 230C131.102 228.6 131.002 227 129.902 226.2C128.902 225.5 127.402 225.9 126.402 226.6C125.402 227.3 124.702 228.4 123.802 229.2C121.602 231.2 118.402 231.9 115.602 231C112.802 230.1 110.602 227.6 110.102 224.7C101.502 229.8 92.9017 234.9 84.3018 240C82.5018 241 80.7018 242.1 79.6018 243.8C78.4018 245.5 78.2017 248 79.5017 249.5L131.802 249.8Z" fill="#292B2E"/>
</g>
<mask id="mask22_251_3066" style="mask-type:luminance" maskUnits="userSpaceOnUse" x="0" y="0" width="234" height="255">
<path d="M0.000778198 0H233.801V254.1H0.000778198V0Z" fill="white"/>
</mask>
<g mask="url(#mask22_251_3066)">
<path d="M130.301 249.8H79.5008C79.2008 251.2 79.5008 252.8 80.4008 253.8H131.801C131.801 252.4 131.801 251 131.801 249.7H130.301V249.8Z" fill="white"/>
</g>
<mask id="mask23_251_3066" style="mask-type:luminance" maskUnits="userSpaceOnUse" x="0" y="0" width="234" height="255">
<path d="M0.000778198 0H233.801V254.1H0.000778198V0Z" fill="white"/>
</mask>
<g mask="url(#mask23_251_3066)">
<path d="M130.301 249.8C130.301 249.8 130.401 249.8 130.701 249.8C131.001 249.8 131.301 249.8 131.801 249.8L131.701 249.7C131.701 250.7 131.701 252 131.701 253.8L131.801 253.7C123.001 253.6 103.701 253.5 81.3008 253.5C81.0008 253.5 80.7008 253.5 80.4008 253.5L80.6008 253.6C79.7008 252.6 79.5008 251.1 79.8008 249.8L79.5008 250C93.7008 250 106.401 249.9 115.601 249.9C120.101 249.9 123.801 249.8 126.401 249.8C127.601 249.8 128.601 249.8 129.301 249.8C129.601 249.8 129.901 249.8 130.101 249.8C130.301 249.8 130.301 249.8 130.301 249.8C130.301 249.8 130.201 249.8 130.001 249.8C129.801 249.8 129.601 249.8 129.201 249.8C128.501 249.8 127.501 249.8 126.301 249.8C123.701 249.8 120.101 249.8 115.501 249.7C106.301 249.7 93.7008 249.6 79.4008 249.6C79.3008 249.6 79.2008 249.7 79.1008 249.8C78.8008 251.2 79.0008 252.8 80.0008 254C80.0008 254.1 80.1008 254.1 80.2008 254.1C80.5008 254.1 80.8008 254.1 81.1008 254.1C103.401 254.1 122.701 254.1 131.601 254C131.701 254 131.701 254 131.701 253.9C131.701 252.2 131.601 250.8 131.601 249.8C131.601 249.8 131.601 249.7 131.501 249.7C131.101 249.7 130.701 249.7 130.401 249.7C130.501 249.7 130.301 249.7 130.301 249.8Z" fill="#292B2E"/>
</g>
<mask id="mask24_251_3066" style="mask-type:luminance" maskUnits="userSpaceOnUse" x="0" y="0" width="234" height="255">
<path d="M0.000778198 0H233.801V254.1H0.000778198V0Z" fill="white"/>
</mask>
<g mask="url(#mask24_251_3066)">
<path d="M97.4 181.9H166.4C169.8 181.9 172.5 179.1 172.5 175.8V167.6C172.5 164.2 169.7 161.5 166.4 161.5H97.4C94 161.5 91.3 164.3 91.3 167.6V175.8C91.2 179.1 94 181.9 97.4 181.9Z" fill="white"/>
</g>
<mask id="mask25_251_3066" style="mask-type:luminance" maskUnits="userSpaceOnUse" x="0" y="0" width="234" height="255">
<path d="M0.000778198 0H233.801V254.1H0.000778198V0Z" fill="white"/>
</mask>
<g mask="url(#mask25_251_3066)">
<path d="M97.4008 181.9C97.4008 181.9 96.7008 181.9 95.5008 181.5C94.9008 181.3 94.2008 180.9 93.5008 180.3C92.8008 179.7 92.1008 178.8 91.7008 177.7C91.3008 176.6 91.4008 175.2 91.4008 173.7C91.4008 172.2 91.4008 170.6 91.4008 168.9C91.4008 168 91.3008 167.1 91.5008 166.3C91.7008 165.4 92.1008 164.6 92.7008 163.8C93.3008 163.1 94.1008 162.4 95.0008 162C95.9008 161.6 97.0008 161.5 98.1008 161.5C115.601 161.5 139.701 161.5 166.401 161.6C168.001 161.6 169.601 162.3 170.701 163.4C171.801 164.5 172.401 166.1 172.301 167.7C172.301 169.3 172.301 170.9 172.301 172.5C172.301 173.3 172.301 174.1 172.301 174.9C172.301 175.7 172.301 176.5 172.101 177.2C171.701 178.7 170.801 179.9 169.501 180.7C168.901 181.1 168.201 181.4 167.501 181.5C166.801 181.6 166.001 181.6 165.301 181.6C162.301 181.6 159.301 181.6 156.401 181.6C144.901 181.6 134.501 181.6 125.701 181.7C117.001 181.7 109.901 181.8 105.001 181.8C102.601 181.8 100.701 181.8 99.4008 181.9C98.8008 181.9 98.3008 181.9 97.9008 181.9C98.3008 181.9 98.7008 181.9 99.4008 181.9C100.701 181.9 102.601 181.9 105.001 181.9C109.901 181.9 117.001 181.9 125.701 182C134.401 182 144.801 182 156.401 182.1C159.301 182.1 162.201 182.1 165.301 182.1C166.001 182.1 166.801 182.1 167.601 182C168.401 181.9 169.101 181.6 169.801 181.1C171.201 180.3 172.201 178.9 172.601 177.3C172.801 176.5 172.801 175.7 172.801 174.9C172.801 174.1 172.801 173.3 172.801 172.5C172.801 170.9 172.801 169.3 172.801 167.7C172.801 166 172.201 164.3 171.001 163.1C169.801 161.9 168.101 161.1 166.401 161.1C139.801 161.1 115.601 161.2 98.1008 161.2C97.0008 161.2 95.9008 161.3 94.9008 161.7C93.9008 162.1 93.1008 162.8 92.4008 163.6C91.8008 164.4 91.4008 165.3 91.2008 166.2C91.0008 167.1 91.1008 168.1 91.1008 168.9C91.1008 170.6 91.1008 172.2 91.1008 173.7C91.1008 175.2 91.0008 176.6 91.5008 177.8C91.9008 179 92.6008 179.9 93.4008 180.5C94.1008 181.1 94.9008 181.5 95.5008 181.7C96.1008 181.9 96.6008 181.9 96.9008 182C97.2008 181.9 97.4008 181.9 97.4008 181.9Z" fill="#292B2E"/>
</g>
<mask id="mask26_251_3066" style="mask-type:luminance" maskUnits="userSpaceOnUse" x="0" y="0" width="234" height="255">
<path d="M0.000778198 0H233.801V254.1H0.000778198V0Z" fill="white"/>
</mask>
<g mask="url(#mask26_251_3066)">
<path d="M200.202 114.7L217.102 253.6H211.502L190.002 114.7H200.202Z" fill="white"/>
</g>
<mask id="mask27_251_3066" style="mask-type:luminance" maskUnits="userSpaceOnUse" x="0" y="0" width="234" height="255">
<path d="M0.000778198 0H233.801V254.1H0.000778198V0Z" fill="white"/>
</mask>
<g mask="url(#mask27_251_3066)">
<path d="M200.2 114.7C200.2 114.7 200 114.7 199.6 114.7C199.2 114.7 198.5 114.7 197.7 114.7C196 114.7 193.4 114.7 190.1 114.6C190 114.6 190 114.6 190 114.7C193.2 135.5 201.3 188.7 210.9 251.1C211 252 211.2 252.8 211.3 253.7C211.3 253.8 211.4 253.9 211.6 253.9C213.5 253.9 215.4 253.9 217.2 253.9C217.3 253.9 217.5 253.8 217.5 253.6C212.7 214.8 208.5 180.1 205.4 155C203.8 142.5 202.6 132.4 201.7 125.5C201.3 122 200.9 119.4 200.7 117.5C200.6 116.6 200.5 115.9 200.4 115.4C200.2 114.9 200.2 114.7 200.2 114.7C200.2 114.7 200.2 115 200.3 115.4C200.4 115.9 200.4 116.6 200.5 117.5C200.7 119.4 201 122.1 201.4 125.5C202.2 132.5 203.4 142.6 204.9 155.1C207.9 180.1 212.1 214.8 216.8 253.5L217.1 253.2H211.5L211.8 253.4C211.7 252.6 211.5 251.7 211.4 250.8C201.7 188.5 193.4 135.3 190.2 114.5L190.1 114.6C193.4 114.6 196 114.6 197.7 114.5C198.5 114.5 199.2 114.5 199.6 114.5C200 114.7 200.2 114.7 200.2 114.7Z" fill="#292B2E"/>
</g>
<mask id="mask28_251_3066" style="mask-type:luminance" maskUnits="userSpaceOnUse" x="0" y="0" width="234" height="255">
<path d="M0.000778198 0H233.801V254.1H0.000778198V0Z" fill="white"/>
</mask>
<g mask="url(#mask28_251_3066)">
<path d="M21.5012 114.7L4.50117 253.8H10.1012L31.7012 114.7H21.5012Z" fill="white"/>
</g>
<mask id="mask29_251_3066" style="mask-type:luminance" maskUnits="userSpaceOnUse" x="0" y="0" width="234" height="255">
<path d="M0.000778198 0H233.801V254.1H0.000778198V0Z" fill="white"/>
</mask>
<g mask="url(#mask29_251_3066)">
<path d="M21.5012 114.7C21.5012 114.7 21.7012 114.7 22.2012 114.7C22.6012 114.7 23.3012 114.7 24.1012 114.7C25.8012 114.7 28.3012 114.7 31.7012 114.8L31.6012 114.7C28.3012 135.5 20.0012 188.8 10.2012 251.2C10.1012 252.1 9.90118 253 9.80118 253.8L10.1012 253.6C8.10118 253.6 6.30117 253.6 4.50117 253.6L4.80118 253.9C9.50118 215.1 13.7012 180.4 16.8012 155.3C18.3012 142.8 19.5012 132.6 20.4012 125.6C20.8012 122.1 21.1012 119.4 21.3012 117.5C21.4012 116.6 21.5012 115.9 21.5012 115.4C21.5012 115 21.5012 114.7 21.5012 114.7C21.5012 114.7 21.5012 114.9 21.4012 115.4C21.3012 115.9 21.2012 116.6 21.1012 117.5C20.9012 119.3 20.5012 122 20.1012 125.5C19.2012 132.5 18.0012 142.6 16.4012 155.1C13.3012 180.2 9.00117 215 4.20117 253.8C4.20117 253.9 4.30118 254.1 4.40118 254.1C6.20118 254.1 8.00117 254.1 10.0012 254.1C10.1012 254.1 10.2012 254 10.3012 253.9C10.4012 253.1 10.6012 252.2 10.7012 251.3C20.3012 188.9 28.5012 135.6 31.7012 114.7C31.7012 114.6 31.7012 114.6 31.6012 114.6C28.2012 114.6 25.7012 114.6 24.0012 114.7C23.2012 114.7 22.5012 114.7 22.1012 114.7C21.7012 114.7 21.5012 114.7 21.5012 114.7Z" fill="#292B2E"/>
</g>
<mask id="mask30_251_3066" style="mask-type:luminance" maskUnits="userSpaceOnUse" x="0" y="0" width="234" height="255">
<path d="M0.000778198 0H233.801V254.1H0.000778198V0Z" fill="white"/>
</mask>
<g mask="url(#mask30_251_3066)">
<path d="M0.000778198 105.4H233.801V114.7H0.000778198V105.4Z" fill="#292B2E"/>
</g>
<mask id="mask31_251_3066" style="mask-type:luminance" maskUnits="userSpaceOnUse" x="0" y="0" width="234" height="255">
<path d="M0.000778198 0H233.801V254.1H0.000778198V0Z" fill="white"/>
</mask>
<g mask="url(#mask31_251_3066)">
<path d="M133.401 115.9C133.401 115.9 123.201 115 114.701 115.4L115.301 120.5C97.0008 121.4 70.8008 123.3 63.4008 127.6C51.9008 134.2 51.0008 146.3 53.7008 155.2C56.4008 164.1 71.1008 223.6 71.1008 223.6L98.3008 216.7L86.3008 159.2L148.801 159.4L133.401 115.9Z" fill="#292B2E"/>
</g>
<mask id="mask32_251_3066" style="mask-type:luminance" maskUnits="userSpaceOnUse" x="0" y="0" width="234" height="255">
<path d="M0.000778198 0H233.801V254.1H0.000778198V0Z" fill="white"/>
</mask>
<g mask="url(#mask32_251_3066)">
<path d="M158.102 115.4C158.102 115.4 164.502 122.2 168.502 133.4C171.302 141.2 169.902 153 165.802 156.6C162.002 160 157.002 161.7 152.002 161.7H137.902L135.002 221.2L101.802 220.7C101.802 220.7 100.902 144.1 101.802 134.1C103.202 118.7 131.702 115.9 131.702 115.9L158.102 115.4Z" fill="#292B2E"/>
</g>
<mask id="mask33_251_3066" style="mask-type:luminance" maskUnits="userSpaceOnUse" x="0" y="0" width="234" height="255">
<path d="M0.000778198 0H233.801V254.1H0.000778198V0Z" fill="white"/>
</mask>
<g mask="url(#mask33_251_3066)">
<path d="M154.801 119.7C154.801 119.7 154.701 119.7 154.401 119.7C154.101 119.7 153.801 119.7 153.301 119.7C152.301 119.7 150.901 119.7 149.001 119.7C145.301 119.7 139.901 119.7 133.301 119.6C130.001 119.6 126.301 119.6 122.401 119.6C118.501 119.6 114.201 120.1 110.101 122C108.101 122.9 106.201 124.3 104.701 126.1C104.001 127 103.301 128 102.801 129.1C102.301 130.2 101.901 131.4 101.701 132.5C101.601 133.1 101.501 133.7 101.501 134.3C101.501 134.9 101.401 135.5 101.401 136.1C101.301 137.3 101.301 138.5 101.301 139.8C101.201 142.3 101.201 144.8 101.201 147.3C101.101 167.6 101.301 186 101.401 199.3C101.501 205.9 101.601 211.3 101.601 215C101.601 216.8 101.701 218.3 101.701 219.3C101.701 218.3 101.701 216.9 101.701 215C101.701 211.3 101.701 205.9 101.601 199.3C101.601 186 101.401 167.6 101.501 147.3C101.501 144.8 101.601 142.3 101.601 139.8C101.601 138.6 101.601 137.3 101.701 136.1C101.701 135.5 101.801 134.9 101.801 134.3C101.901 133.7 101.901 133.1 102.001 132.5C102.201 131.3 102.601 130.2 103.001 129.2C103.501 128.2 104.101 127.2 104.801 126.3C106.301 124.6 108.101 123.3 110.101 122.3C114.001 120.5 118.301 119.9 122.101 119.9C126.001 119.9 129.701 119.9 133.001 119.9C139.601 119.9 145.001 119.8 148.801 119.8C150.601 119.8 152.101 119.8 153.101 119.8C153.601 119.8 153.901 119.8 154.201 119.8C154.701 119.7 154.801 119.7 154.801 119.7Z" fill="white"/>
</g>
<mask id="mask34_251_3066" style="mask-type:luminance" maskUnits="userSpaceOnUse" x="0" y="0" width="234" height="255">
<path d="M0.000778198 0H233.801V254.1H0.000778198V0Z" fill="white"/>
</mask>
<g mask="url(#mask34_251_3066)">
<path d="M76.2013 147.5C76.1013 147.6 78.8013 149.9 81.6013 153.2C84.4013 156.5 86.2013 159.6 86.3013 159.5C86.4013 159.5 86.0013 158.7 85.2013 157.4C84.5013 156.2 83.3013 154.5 81.9013 152.9C80.5013 151.2 79.1013 149.8 78.0013 148.9C77.0013 147.9 76.3013 147.4 76.2013 147.5Z" fill="white"/>
</g>
<mask id="mask35_251_3066" style="mask-type:luminance" maskUnits="userSpaceOnUse" x="0" y="0" width="234" height="255">
<path d="M0.000778198 0H233.801V254.1H0.000778198V0Z" fill="white"/>
</mask>
<g mask="url(#mask35_251_3066)">
<path d="M73.6017 153.5C73.5017 153.6 76.3017 155 79.9017 156.6C83.4017 158.2 86.3017 159.3 86.4017 159.2C86.5017 159.1 83.7017 157.7 80.1017 156.1C76.6017 154.5 73.7017 153.4 73.6017 153.5Z" fill="white"/>
</g>
<mask id="mask36_251_3066" style="mask-type:luminance" maskUnits="userSpaceOnUse" x="0" y="0" width="234" height="255">
<path d="M0.000778198 0H233.801V254.1H0.000778198V0Z" fill="white"/>
</mask>
<g mask="url(#mask36_251_3066)">
<path d="M138.5 145.8C138.4 145.8 138.4 146.7 138.4 148.3C138.4 149.8 138.3 151.9 138.2 154.3C138.1 156.6 137.9 158.7 137.8 160.2C137.7 161.7 137.6 162.7 137.7 162.7C137.8 162.7 138 161.8 138.2 160.3C138.4 158.8 138.7 156.7 138.8 154.3C138.9 152 138.9 149.8 138.9 148.3C138.6 146.7 138.5 145.8 138.5 145.8Z" fill="white"/>
</g>
<mask id="mask37_251_3066" style="mask-type:luminance" maskUnits="userSpaceOnUse" x="0" y="0" width="234" height="255">
<path d="M0.000778198 0H233.801V254.1H0.000778198V0Z" fill="white"/>
</mask>
<g mask="url(#mask37_251_3066)">
<path d="M41.9015 105.4V99.3999H3.40148V105.4C3.40148 105.4 42.4015 105 41.9015 105.4Z" fill="white"/>
</g>
<mask id="mask38_251_3066" style="mask-type:luminance" maskUnits="userSpaceOnUse" x="0" y="0" width="234" height="255">
<path d="M0.000778198 0H233.801V254.1H0.000778198V0Z" fill="white"/>
</mask>
<g mask="url(#mask38_251_3066)">
<path d="M41.9 105.4C42 105.2 37.7 105.1 30.8 105C23.9 105 14.2 105 3.3 105.1L3.60001 105.4C3.60001 103.5 3.60001 101.4 3.60001 99.4L3.3 99.7C19.9 99.7 34.3 99.6 41.8 99.6L41.7 99.5C41.7 101.4 41.8 103 41.8 104C41.8 104.5 41.8 104.8 41.8 105.1C41.9 105.3 41.9 105.4 41.9 105.4C41.9 105.4 41.9 105.2 41.9 105C41.9 104.7 41.9 104.3 41.9 103.8C41.9 102.7 42 101.3 42 99.4C42 99.3 41.9 99.3 41.9 99.3C34.4 99.2 19.9 99.2 3.40001 99.2C3.30001 99.2 3.10001 99.3 3.10001 99.5C3.10001 101.6 3.10001 103.6 3.10001 105.5C3.10001 105.6 3.20001 105.8 3.40001 105.8C14.3 105.7 23.9 105.6 30.8 105.5C34.2 105.5 37 105.5 38.9 105.5C40.9 105.4 42 105.4 41.9 105.4Z" fill="#292B2E"/>
</g>
<mask id="mask39_251_3066" style="mask-type:luminance" maskUnits="userSpaceOnUse" x="0" y="0" width="234" height="255">
<path d="M0.000778198 0H233.801V254.1H0.000778198V0Z" fill="white"/>
</mask>
<g mask="url(#mask39_251_3066)">
<path d="M11.9016 101.6C11.9016 101.7 18.7016 101.9 27.0016 101.9C35.3016 101.9 42.1016 101.8 42.1016 101.6C42.1016 101.5 35.3016 101.3 27.0016 101.3C18.6016 101.4 11.9016 101.5 11.9016 101.6Z" fill="#292B2E"/>
</g>
<mask id="mask40_251_3066" style="mask-type:luminance" maskUnits="userSpaceOnUse" x="0" y="0" width="234" height="255">
<path d="M0.000778198 0H233.801V254.1H0.000778198V0Z" fill="white"/>
</mask>
<g mask="url(#mask40_251_3066)">
<path d="M3.50117 103C3.50117 103.1 10.3012 103.3 18.6012 103.3C26.9012 103.3 33.7012 103.2 33.7012 103C33.7012 102.9 26.9012 102.7 18.6012 102.7C10.3012 102.7 3.50117 102.9 3.50117 103Z" fill="#292B2E"/>
</g>
<mask id="mask41_251_3066" style="mask-type:luminance" maskUnits="userSpaceOnUse" x="0" y="0" width="234" height="255">
<path d="M0.000778198 0H233.801V254.1H0.000778198V0Z" fill="white"/>
</mask>
<g mask="url(#mask41_251_3066)">
<path d="M6.00156 97.8999H44.1016V99.3999H6.00156V97.8999Z" fill="white"/>
</g>
<mask id="mask42_251_3066" style="mask-type:luminance" maskUnits="userSpaceOnUse" x="0" y="0" width="234" height="255">
<path d="M0.000778198 0H233.801V254.1H0.000778198V0Z" fill="white"/>
</mask>
<g mask="url(#mask42_251_3066)">
<path d="M6.00038 99.4C6.00038 99.4 6.00038 99.3 6.00038 99C6.00038 98.7 6.00038 98.4 6.00038 97.9L5.90039 98C10.3004 98.1 25.7004 98.2 44.0004 98.2C43.5004 97.7 43.9004 98.1 43.7004 97.9V98V98.2V98.6V99.3L44.0004 99C33.5004 99 24.0004 99.1 17.1004 99.1C13.7004 99.1 10.9004 99.2 8.90039 99.2C8.00039 99.2 7.20038 99.2 6.70038 99.2C6.30038 99.4 6.00038 99.4 6.00038 99.4C6.00038 99.4 6.20038 99.4 6.70038 99.4C7.20038 99.4 8.00039 99.4 8.90039 99.4C10.9004 99.4 13.6004 99.4 17.0004 99.5C23.9004 99.5 33.5004 99.6 44.1004 99.6C44.2004 99.6 44.4004 99.5 44.4004 99.3V98.6V98.2V98L44.1004 97.7C25.8004 97.7 10.4004 97.8 6.00038 97.9C6.00038 97.9 5.90039 97.9 5.90039 98C5.90039 98.5 5.90039 98.9 5.90039 99.1C6.00039 99.3 6.00038 99.4 6.00038 99.4Z" fill="#292B2E"/>
</g>
<mask id="mask43_251_3066" style="mask-type:luminance" maskUnits="userSpaceOnUse" x="0" y="0" width="234" height="255">
<path d="M0.000778198 0H233.801V254.1H0.000778198V0Z" fill="white"/>
</mask>
<g mask="url(#mask43_251_3066)">
<path d="M162.3 181.9L170 253.8H166.2L154.8 181.9H162.3Z" fill="#292B2E"/>
</g>
<mask id="mask44_251_3066" style="mask-type:luminance" maskUnits="userSpaceOnUse" x="0" y="0" width="234" height="255">
<path d="M0.000778198 0H233.801V254.1H0.000778198V0Z" fill="white"/>
</mask>
<g mask="url(#mask44_251_3066)">
<path d="M7.50078 96H40.8008V97.9H7.50078V96Z" fill="#292B2E"/>
</g>
<mask id="mask45_251_3066" style="mask-type:luminance" maskUnits="userSpaceOnUse" x="0" y="0" width="234" height="255">
<path d="M0.000778198 0H233.801V254.1H0.000778198V0Z" fill="white"/>
</mask>
<g mask="url(#mask45_251_3066)">
<path d="M7.50078 86.5H40.8008V88.4H7.50078V86.5Z" fill="#292B2E"/>
</g>
<mask id="mask46_251_3066" style="mask-type:luminance" maskUnits="userSpaceOnUse" x="0" y="0" width="234" height="255">
<path d="M0.000778198 0H233.801V254.1H0.000778198V0Z" fill="white"/>
</mask>
<g mask="url(#mask46_251_3066)">
<path d="M7.60118 88.3999H39.7012V95.9999H7.60118V88.3999Z" fill="white"/>
</g>
<mask id="mask47_251_3066" style="mask-type:luminance" maskUnits="userSpaceOnUse" x="0" y="0" width="234" height="255">
<path d="M0.000778198 0H233.801V254.1H0.000778198V0Z" fill="white"/>
</mask>
<g mask="url(#mask47_251_3066)">
<path d="M7.59985 96.0001C7.59985 96.0001 7.59985 95.8001 7.59985 95.5001C7.59985 95.1001 7.59985 94.6001 7.59985 94.0001C7.59985 92.7001 7.59984 90.8001 7.69984 88.4001L7.49984 88.6001C14.5998 88.7001 26.3998 88.7001 39.5999 88.7001C39.0999 88.2001 39.4998 88.6001 39.2998 88.4001V88.5001V88.6001V88.8001V89.3001V90.3001V92.2001C39.2998 93.5001 39.2998 94.7001 39.2998 95.9001L39.5999 95.6001C30.4998 95.6001 22.4998 95.7001 16.7998 95.7001C13.9998 95.7001 11.6998 95.8001 9.99984 95.8001C9.19984 95.8001 8.59984 95.8001 8.19984 95.8001C7.79984 96.0001 7.59985 96.0001 7.59985 96.0001C7.59985 96.0001 7.79984 96.0001 8.19984 96.0001C8.69984 96.0001 9.19984 96.0001 9.99984 96.0001C11.5998 96.0001 13.8998 96.0001 16.6998 96.1001C22.4998 96.1001 30.5998 96.2001 39.6998 96.2001C39.7998 96.2001 39.9998 96.1001 39.9998 95.9001C39.9998 94.7001 39.9998 93.4001 39.9998 92.2001C39.9998 91.6001 39.9998 90.9001 39.9998 90.3001V89.3001V88.8001V88.6001V88.5001V88.4001C39.8998 88.3001 40.2998 88.7001 39.6998 88.1001C26.3998 88.1001 14.6999 88.1001 7.59985 88.2001C7.49985 88.2001 7.39985 88.3001 7.39985 88.3001C7.39985 90.7001 7.49984 92.6001 7.49984 93.9001C7.49984 94.5001 7.49984 95.0001 7.49984 95.4001C7.59984 95.9001 7.59985 96.1001 7.59985 96.0001Z" fill="#292B2E"/>
</g>
<mask id="mask48_251_3066" style="mask-type:luminance" maskUnits="userSpaceOnUse" x="0" y="0" width="234" height="255">
<path d="M0.000778198 0H233.801V254.1H0.000778198V0Z" fill="white"/>
</mask>
<g mask="url(#mask48_251_3066)">
<path d="M7.50156 97.9H8.60156C7.70156 94 7.70156 90.2 8.60156 86.5H7.50156C7.00156 86.5 6.50156 86.9 6.50156 87.5V97C6.50156 97.5 7.00156 97.9 7.50156 97.9Z" fill="#292B2E"/>
</g>
<mask id="mask49_251_3066" style="mask-type:luminance" maskUnits="userSpaceOnUse" x="0" y="0" width="234" height="255">
<path d="M0.000778198 0H233.801V254.1H0.000778198V0Z" fill="white"/>
</mask>
<g mask="url(#mask49_251_3066)">
<path d="M10.7012 91.3C10.7012 91.4 17.2012 91.6 25.2012 91.6C33.2012 91.6 39.7012 91.5 39.7012 91.3C39.7012 91.2 33.2012 91 25.2012 91C17.1012 91 10.7012 91.2 10.7012 91.3Z" fill="#292B2E"/>
</g>
<mask id="mask50_251_3066" style="mask-type:luminance" maskUnits="userSpaceOnUse" x="0" y="0" width="234" height="255">
<path d="M0.000778198 0H233.801V254.1H0.000778198V0Z" fill="white"/>
</mask>
<g mask="url(#mask50_251_3066)">
<path d="M8.00078 93.4001C8.00078 93.5001 15.1008 93.7001 23.9008 93.7001C32.7008 93.7001 39.8008 93.6001 39.8008 93.4001C39.8008 93.3001 32.7008 93.1001 23.9008 93.1001C15.1008 93.2001 8.00078 93.3001 8.00078 93.4001Z" fill="#292B2E"/>
</g>
<mask id="mask51_251_3066" style="mask-type:luminance" maskUnits="userSpaceOnUse" x="0" y="0" width="234" height="255">
<path d="M0.000778198 0H233.801V254.1H0.000778198V0Z" fill="white"/>
</mask>
<g mask="url(#mask51_251_3066)">
<path d="M50.1008 72.6001L59.3008 105.4H122.801C122.801 102.9 120.801 100.9 118.301 100.8L102.801 100.5L95.0008 70.0001C94.6008 68.3001 93.0008 67.1001 91.3008 67.1001L53.6008 67.7001C51.2008 67.8001 49.4008 70.2001 50.1008 72.6001Z" fill="#15D85E"/>
</g>
<mask id="mask52_251_3066" style="mask-type:luminance" maskUnits="userSpaceOnUse" x="0" y="0" width="234" height="255">
<path d="M0.000778198 0H233.801V254.1H0.000778198V0Z" fill="white"/>
</mask>
<g mask="url(#mask52_251_3066)">
<path d="M71.8016 88.0001C71.8016 89.9001 73.3016 91.4001 75.2016 91.4001C77.1016 91.4001 78.6016 89.9001 78.6016 88.0001C78.6016 86.1001 77.1016 84.6001 75.2016 84.6001C73.3016 84.6001 71.8016 86.1001 71.8016 88.0001Z" fill="white"/>
</g>
<mask id="mask53_251_3066" style="mask-type:luminance" maskUnits="userSpaceOnUse" x="0" y="0" width="234" height="255">
<path d="M0.000778198 0H233.801V254.1H0.000778198V0Z" fill="white"/>
</mask>
<g mask="url(#mask53_251_3066)">
<path d="M0.500381 76.5H45.9004V87.1H0.500381V76.5Z" fill="white"/>
</g>
<mask id="mask54_251_3066" style="mask-type:luminance" maskUnits="userSpaceOnUse" x="0" y="0" width="234" height="255">
<path d="M0.000778198 0H233.801V254.1H0.000778198V0Z" fill="white"/>
</mask>
<g mask="url(#mask54_251_3066)">
<path d="M0.500381 76.5H45.9004V87.1H0.500381V76.5Z" stroke="#292B2E" stroke-width="0.5" stroke-miterlimit="10" stroke-linecap="round" stroke-linejoin="round"/>
</g>
<mask id="mask55_251_3066" style="mask-type:luminance" maskUnits="userSpaceOnUse" x="0" y="0" width="234" height="255">
<path d="M0.000778198 0H233.801V254.1H0.000778198V0Z" fill="white"/>
</mask>
<g mask="url(#mask55_251_3066)">
<path d="M32.3 87.1C33.6 88.4 35.5 89.3 37.6 89.3C41.7 89.3 45 86 45 81.9C45 77.8 41.7 74.5 37.6 74.5C35.7 74.5 34 75.2 32.7 76.3" stroke="#292B2E" stroke-width="0.5" stroke-miterlimit="10" stroke-linecap="round" stroke-linejoin="round"/>
</g>
<mask id="mask56_251_3066" style="mask-type:luminance" maskUnits="userSpaceOnUse" x="0" y="0" width="234" height="255">
<path d="M0.000778198 0H233.801V254.1H0.000778198V0Z" fill="white"/>
</mask>
<g mask="url(#mask56_251_3066)">
<path d="M24.4016 87.1C25.7016 88.4 27.6016 89.3 29.7016 89.3C33.8016 89.3 37.1016 86 37.1016 81.9C37.1016 77.8 33.8016 74.5 29.7016 74.5C27.8016 74.5 26.1016 75.2 24.8016 76.3" stroke="#292B2E" stroke-width="0.5" stroke-miterlimit="10" stroke-linecap="round" stroke-linejoin="round"/>
</g>
<mask id="mask57_251_3066" style="mask-type:luminance" maskUnits="userSpaceOnUse" x="0" y="0" width="234" height="255">
<path d="M0.000778198 0H233.801V254.1H0.000778198V0Z" fill="white"/>
</mask>
<g mask="url(#mask57_251_3066)">
<path d="M16.4016 87.1C17.7016 88.4 19.6016 89.3 21.7016 89.3C25.8016 89.3 29.1016 86 29.1016 81.9C29.1016 77.8 25.8016 74.5 21.7016 74.5C19.8016 74.5 18.1016 75.2 16.8016 76.3" stroke="#292B2E" stroke-width="0.5" stroke-miterlimit="10" stroke-linecap="round" stroke-linejoin="round"/>
</g>
<mask id="mask58_251_3066" style="mask-type:luminance" maskUnits="userSpaceOnUse" x="0" y="0" width="234" height="255">
<path d="M0.000778198 0H233.801V254.1H0.000778198V0Z" fill="white"/>
</mask>
<g mask="url(#mask58_251_3066)">
<path d="M8.50117 87.1C9.80117 88.4 11.7012 89.3 13.8012 89.3C17.9012 89.3 21.2012 86 21.2012 81.9C21.2012 77.8 17.9012 74.5 13.8012 74.5C11.9012 74.5 10.2012 75.2 8.90118 76.3" stroke="#292B2E" stroke-width="0.5" stroke-miterlimit="10" stroke-linecap="round" stroke-linejoin="round"/>
</g>
<mask id="mask59_251_3066" style="mask-type:luminance" maskUnits="userSpaceOnUse" x="0" y="0" width="234" height="255">
<path d="M0.000778198 0H233.801V254.1H0.000778198V0Z" fill="white"/>
</mask>
<g mask="url(#mask59_251_3066)">
<path d="M0.600784 87.1C1.90078 88.4 3.80079 89.3 5.90079 89.3C10.0008 89.3 13.3008 86 13.3008 81.9C13.3008 77.8 10.0008 74.5 5.90079 74.5C4.00079 74.5 2.30078 75.2 1.00078 76.3" stroke="#292B2E" stroke-width="0.5" stroke-miterlimit="10" stroke-linecap="round" stroke-linejoin="round"/>
</g>
<mask id="mask60_251_3066" style="mask-type:luminance" maskUnits="userSpaceOnUse" x="0" y="0" width="234" height="255">
<path d="M0.000778198 0H233.801V254.1H0.000778198V0Z" fill="white"/>
</mask>
<g mask="url(#mask60_251_3066)">
<path d="M4.10156 83.3C4.10156 83.4 13.3016 83.6 24.6016 83.6C35.9016 83.6 45.1016 83.5 45.1016 83.3C45.1016 83.2 35.9016 83 24.6016 83C13.3016 83.1 4.10156 83.2 4.10156 83.3Z" fill="#292B2E"/>
</g>
<mask id="mask61_251_3066" style="mask-type:luminance" maskUnits="userSpaceOnUse" x="0" y="0" width="234" height="255">
<path d="M0.000778198 0H233.801V254.1H0.000778198V0Z" fill="white"/>
</mask>
<g mask="url(#mask61_251_3066)">
<path d="M0.601562 80.6999C0.601562 80.7999 9.80156 80.9999 21.1016 80.9999C32.4016 80.9999 41.6016 80.8999 41.6016 80.6999C41.6016 80.5999 32.4016 80.3999 21.1016 80.3999C9.70156 80.4999 0.601562 80.5999 0.601562 80.6999Z" fill="#292B2E"/>
</g>
<mask id="mask62_251_3066" style="mask-type:luminance" maskUnits="userSpaceOnUse" x="0" y="0" width="234" height="255">
<path d="M0.000778198 0H233.801V254.1H0.000778198V0Z" fill="white"/>
</mask>
<g mask="url(#mask62_251_3066)">
<path d="M140.901 32.4L148.301 21C149.501 18.6 152.401 17 155.101 17.3C157.801 17.6 160.301 19.7 160.901 22.4C161.601 25.1 160.401 28.1 158.201 29.6C160.701 28.5 163.801 30.6 164.301 33.3C164.801 36 163.101 38.7 160.701 40C158.801 41 156.001 41.1 154.801 39.3C154.001 41.7 151.401 43.2 148.901 43.2C146.401 43.2 144.001 41.7 142.601 39.6C141.201 37.5 140.701 34.9 140.901 32.4Z" fill="#292B2E"/>
</g>
<mask id="mask63_251_3066" style="mask-type:luminance" maskUnits="userSpaceOnUse" x="0" y="0" width="234" height="255">
<path d="M0.000778198 0H233.801V254.1H0.000778198V0Z" fill="white"/>
</mask>
<g mask="url(#mask63_251_3066)">
<path d="M106.101 18.1C106.001 15.7 108.401 13.3 110.801 13.8C109.601 12.9 108.501 11.9 107.601 10.7C106.801 9.50001 106.301 7.90001 106.801 6.50001C107.401 4.80001 109.101 3.70001 110.801 3.10001C113.801 2.10001 117.101 2.20001 120.001 3.40001C119.901 2.20001 120.901 1.20001 122.001 0.800014C123.101 0.400014 124.601 1.44094e-05 125.801 0.100014C128.101 0.200014 128.901 0.100014 131.101 0.900014C133.301 1.70001 134.701 2.90001 135.601 5.00001C144.001 6.60001 148.201 14.7 149.201 19.9L115.701 29.4C114.301 29.5 112.901 29.5 111.501 29.1C110.201 28.6 109.001 27.6 108.701 26.2C108.401 24.8 109.401 23.2 110.801 23.1C108.301 22.5 106.201 20.5 106.101 18.1Z" fill="#292B2E"/>
</g>
<mask id="mask64_251_3066" style="mask-type:luminance" maskUnits="userSpaceOnUse" x="0" y="0" width="234" height="255">
<path d="M0.000778198 0H233.801V254.1H0.000778198V0Z" fill="white"/>
</mask>
<g mask="url(#mask64_251_3066)">
<path d="M114.1 11.9C116.3 8.3 120.3 6 124.5 6L127 8C123.2 7.8 119.5 10 117.2 13.1C114.9 16.2 113.9 20 113.5 23.8C111.7 20.1 111.9 15.4 114.1 11.9Z" fill="#292B2E"/>
</g>
<mask id="mask65_251_3066" style="mask-type:luminance" maskUnits="userSpaceOnUse" x="0" y="0" width="234" height="255">
<path d="M0.000778198 0H233.801V254.1H0.000778198V0Z" fill="white"/>
</mask>
<g mask="url(#mask65_251_3066)">
<path d="M112.301 19C113.501 13.7 117.701 9.69995 123.001 8.59995L125.301 8.19995L138.801 19.1L139.301 34L138.501 49.7L138.401 50.0999C132.501 56.8999 127.101 58.4 123.801 56.9C121.301 55.8 119.901 53.2 120.201 50.5C120.401 49 120.401 47.2999 119.801 46C118.801 43.7 114.701 43.3999 112.901 37.5999C111.501 32.7999 112.301 19 112.301 19Z" fill="white"/>
</g>
<mask id="mask66_251_3066" style="mask-type:luminance" maskUnits="userSpaceOnUse" x="0" y="0" width="234" height="255">
<path d="M0.000778198 0H233.801V254.1H0.000778198V0Z" fill="white"/>
</mask>
<g mask="url(#mask66_251_3066)">
<path d="M112.301 19C113.501 13.7 117.701 9.69995 123.001 8.59995L125.301 8.19995L138.801 19.1L139.301 34L138.501 49.7L138.401 50.0999C132.501 56.8999 127.101 58.4 123.801 56.9C121.301 55.8 119.901 53.2 120.201 50.5C120.401 49 120.401 47.3 119.801 46C118.801 43.7 114.701 43.3999 112.901 37.5999C111.501 32.7999 112.301 19 112.301 19Z" stroke="#292B2E" stroke-width="0.5" stroke-miterlimit="10" stroke-linecap="round" stroke-linejoin="round"/>
</g>
<mask id="mask67_251_3066" style="mask-type:luminance" maskUnits="userSpaceOnUse" x="0" y="0" width="234" height="255">
<path d="M0.000778198 0H233.801V254.1H0.000778198V0Z" fill="white"/>
</mask>
<g mask="url(#mask67_251_3066)">
<path d="M114.402 16.6001C114.602 16.4001 114.802 16.3001 115.102 16.2001C115.402 16.1001 115.602 16.1001 115.902 16.1001C115.902 16.1001 115.902 16.1001 116.002 16.1001C116.102 16.1001 116.302 16.1001 116.402 16.1001C116.602 16.1001 116.702 16.2001 116.902 16.2001C117.102 16.3001 117.202 16.3001 117.402 16.4001C117.402 16.4001 117.402 16.4001 117.502 16.4001H117.602C117.902 16.6001 118.102 16.8001 118.302 17.1001C118.402 17.4001 118.402 17.9001 118.102 18.1001C117.902 18.2001 117.702 18.3001 117.502 18.3001C117.202 18.3001 116.902 18.3001 116.602 18.3001C116.202 18.3001 115.802 18.3001 115.502 18.2001C115.102 18.1001 114.802 17.9001 114.502 17.5001C114.202 17.6001 114.202 17.0001 114.402 16.6001Z" fill="#292B2E"/>
</g>
<mask id="mask68_251_3066" style="mask-type:luminance" maskUnits="userSpaceOnUse" x="0" y="0" width="234" height="255">
<path d="M0.000778198 0H233.801V254.1H0.000778198V0Z" fill="white"/>
</mask>
<g mask="url(#mask68_251_3066)">
<path d="M124.8 16.6001C125 16.4001 125.2 16.3001 125.5 16.2001C125.8 16.1001 126 16.1001 126.3 16.1001C126.3 16.1001 126.3 16.1001 126.4 16.1001C126.5 16.1001 126.7 16.1001 126.8 16.1001C127 16.1001 127.1 16.2001 127.3 16.2001C127.5 16.3001 127.6 16.3001 127.8 16.4001C127.8 16.4001 127.8 16.4001 127.9 16.4001H128C128.3 16.6001 128.5 16.8001 128.7 17.1001C128.8 17.4001 128.8 17.9001 128.5 18.1001C128.3 18.2001 128.1 18.3001 127.9 18.3001C127.6 18.3001 127.3 18.3001 127 18.3001C126.6 18.3001 126.2 18.3001 125.9 18.2001C125.5 18.1001 125.2 17.9001 124.9 17.5001C124.6 17.6001 124.6 17.0001 124.8 16.6001Z" fill="#292B2E"/>
</g>
<mask id="mask69_251_3066" style="mask-type:luminance" maskUnits="userSpaceOnUse" x="0" y="0" width="234" height="255">
<path d="M0.000778198 0H233.801V254.1H0.000778198V0Z" fill="white"/>
</mask>
<g mask="url(#mask69_251_3066)">
<path d="M127.201 25.9999C127.201 25.4999 127.301 24.9999 127.001 24.4999L126.901 24.3999C126.601 24.1999 126.201 24.0999 125.901 24.2999C125.601 24.3999 125.401 24.7999 125.401 25.0999C125.301 25.5999 125.401 25.9999 125.501 26.4999C125.501 26.6999 125.601 26.9999 125.701 27.1999C125.801 27.3999 126.001 27.5999 126.201 27.6999C126.601 27.7999 127.001 27.4999 127.101 27.0999C127.201 26.8999 127.201 26.3999 127.201 25.9999Z" fill="#292B2E"/>
</g>
<mask id="mask70_251_3066" style="mask-type:luminance" maskUnits="userSpaceOnUse" x="0" y="0" width="234" height="255">
<path d="M0.000778198 0H233.801V254.1H0.000778198V0Z" fill="white"/>
</mask>
<g mask="url(#mask70_251_3066)">
<path d="M117.201 25.9999C117.201 25.4999 117.301 24.9999 117.001 24.4999L116.901 24.3999C116.601 24.1999 116.201 24.0999 115.901 24.2999C115.601 24.3999 115.401 24.7999 115.401 25.0999C115.301 25.5999 115.401 25.9999 115.501 26.4999C115.501 26.6999 115.601 26.9999 115.701 27.1999C115.801 27.3999 116.001 27.5999 116.201 27.6999C116.601 27.7999 117.001 27.4999 117.101 27.0999C117.201 26.8999 117.201 26.3999 117.201 25.9999Z" fill="#292B2E"/>
</g>
<mask id="mask71_251_3066" style="mask-type:luminance" maskUnits="userSpaceOnUse" x="0" y="0" width="234" height="255">
<path d="M0.000778198 0H233.801V254.1H0.000778198V0Z" fill="white"/>
</mask>
<g mask="url(#mask71_251_3066)">
<path d="M116.9 43.2999L119.4 45.2C119.9 45.9 120.1 46 120 46.9C123.9 46.4 127.1 46 130 43.2C125.3 44.6 122.1 45.0999 116.9 43.2999Z" fill="#292B2E"/>
</g>
<mask id="mask72_251_3066" style="mask-type:luminance" maskUnits="userSpaceOnUse" x="0" y="0" width="234" height="255">
<path d="M0.000778198 0H233.801V254.1H0.000778198V0Z" fill="white"/>
</mask>
<g mask="url(#mask72_251_3066)">
<path d="M122.302 31.2999C122.302 31.1999 121.802 30.9999 121.102 30.4C120.802 30.0999 120.402 29.7 120.202 29.1C120.102 28.8 120.002 28.5 119.902 28.2C119.902 28.1 119.802 27.8 119.802 27.9C119.702 27.9 119.902 27.9 120.002 28C120.702 28.2 121.402 28.3 122.102 28.5C122.202 28.5 122.402 28.4999 122.402 28.2999C122.502 26.4999 122.502 25.2 122.402 25.2C122.302 25.2 122.102 26.4999 121.902 28.2999L122.202 28.1C121.502 27.9 120.802 27.7 120.102 27.6C119.902 27.6 119.702 27.4 119.302 27.7C119.202 27.9 119.202 28.1 119.202 28.2L119.302 28.5C119.402 28.8 119.502 29.2 119.702 29.5C120.002 30.1 120.402 30.4999 120.802 30.7999C121.702 31.2999 122.302 31.3999 122.302 31.2999Z" fill="#292B2E"/>
</g>
<mask id="mask73_251_3066" style="mask-type:luminance" maskUnits="userSpaceOnUse" x="0" y="0" width="234" height="255">
<path d="M0.000778198 0H233.801V254.1H0.000778198V0Z" fill="white"/>
</mask>
<g mask="url(#mask73_251_3066)">
<path d="M138.201 28.3999C130.201 23.2999 125.601 14.7999 124.201 5.89988C136.201 1.89988 145.901 9.59988 148.901 18.6999C151.901 27.7999 146.801 37.3999 138.401 41.9999" fill="#292B2E"/>
</g>
<mask id="mask74_251_3066" style="mask-type:luminance" maskUnits="userSpaceOnUse" x="0" y="0" width="234" height="255">
<path d="M0.000778198 0H233.801V254.1H0.000778198V0Z" fill="white"/>
</mask>
<g mask="url(#mask74_251_3066)">
<path d="M135.5 37.4001C137.4 37.7001 140 36.7001 141 35.8001C142.3 34.5001 143 33.2001 143 31.3001C143 29.5001 142.2 27.6001 140.6 26.6001C139 25.7001 136.8 25.9001 135.6 27.3001" fill="white"/>
</g>
<mask id="mask75_251_3066" style="mask-type:luminance" maskUnits="userSpaceOnUse" x="0" y="0" width="234" height="255">
<path d="M0.000778198 0H233.801V254.1H0.000778198V0Z" fill="white"/>
</mask>
<g mask="url(#mask75_251_3066)">
<path d="M135.5 37.4001C137.4 37.7001 140 36.7001 141 35.8001C142.3 34.5001 143 33.2001 143 31.3001C143 29.5001 142.2 27.6001 140.6 26.6001C139 25.7001 136.8 25.9001 135.6 27.3001" stroke="#292B2E" stroke-width="0.5" stroke-miterlimit="10" stroke-linecap="round" stroke-linejoin="round"/>
</g>
<mask id="mask76_251_3066" style="mask-type:luminance" maskUnits="userSpaceOnUse" x="0" y="0" width="234" height="255">
<path d="M0.000778198 0H233.801V254.1H0.000778198V0Z" fill="white"/>
</mask>
<g mask="url(#mask76_251_3066)">
<path d="M136.701 34.4C136.701 34.4 136.901 34.5 137.201 34.3C137.501 34.2 137.901 33.8 138.101 33.2C138.201 32.9 138.201 32.6 138.301 32.3C138.301 32 138.301 31.5 138.101 31.1C137.901 30.7 137.301 30.4 136.901 30.5C136.401 30.6 136.001 30.9 135.701 31.3C135.601 31.5 135.401 31.7 135.301 31.8L135.801 32C136.401 30.6 137.501 29.7 138.401 29.3C139.201 29 139.801 28.9 139.801 28.9C139.801 28.9 139.201 28.8 138.201 29.2C137.201 29.6 135.901 30.5 135.301 32C135.201 32.1 135.301 32.3 135.401 32.3C135.501 32.4 135.701 32.3 135.701 32.2C135.801 32 135.901 31.9 136.101 31.7C136.601 31 137.401 30.9 137.701 31.4C138.001 31.9 137.901 32.7 137.801 33.2C137.701 33.7 137.401 34.1 137.201 34.2C136.901 34.4 136.701 34.4 136.701 34.4Z" fill="#292B2E"/>
</g>
<mask id="mask77_251_3066" style="mask-type:luminance" maskUnits="userSpaceOnUse" x="0" y="0" width="234" height="255">
<path d="M0.000778198 0H233.801V254.1H0.000778198V0Z" fill="white"/>
</mask>
<g mask="url(#mask77_251_3066)">
<path d="M123.301 35.7001C123.301 35.7001 123.801 36.0001 124.701 35.7001C125.601 35.5001 126.701 34.3001 126.401 32.8001C126.301 32.6001 126.201 32.4001 126.001 32.3001C125.801 32.2001 125.601 32.1001 125.401 32.1001C125.001 32.1001 124.701 32.2001 124.501 32.3001C124.001 32.4001 123.501 32.6001 123.101 32.8001C122.301 33.1001 121.801 33.3001 121.801 33.3001C121.801 33.4001 122.301 33.3001 123.201 33.1001C123.701 33.0001 124.201 32.9001 124.701 32.8001C125.301 32.6001 125.901 32.5001 126.001 33.0001C126.101 33.5001 126.001 34.1001 125.701 34.5001C125.401 34.9001 125.001 35.2001 124.701 35.4001C123.801 35.8001 123.301 35.7001 123.301 35.7001Z" fill="#292B2E"/>
</g>
<mask id="mask78_251_3066" style="mask-type:luminance" maskUnits="userSpaceOnUse" x="0" y="0" width="234" height="255">
<path d="M0.000778198 0H233.801V254.1H0.000778198V0Z" fill="white"/>
</mask>
<g mask="url(#mask78_251_3066)">
<path d="M143.501 36.3999C143.501 36.4999 144.401 36.1999 145.701 35.2999C146.901 34.3999 148.501 32.8999 149.401 30.6999C150.301 28.4999 150.401 26.2999 150.201 24.7999C150.001 23.2999 149.501 22.3999 149.501 22.3999C149.401 22.3999 149.701 23.2999 149.801 24.7999C149.901 26.2999 149.801 28.3999 148.901 30.3999C148.001 32.4999 146.601 33.9999 145.401 34.8999C144.301 35.8999 143.401 36.2999 143.501 36.3999Z" fill="white"/>
</g>
<mask id="mask79_251_3066" style="mask-type:luminance" maskUnits="userSpaceOnUse" x="0" y="0" width="234" height="255">
<path d="M0.000778198 0H233.801V254.1H0.000778198V0Z" fill="white"/>
</mask>
<g mask="url(#mask79_251_3066)">
<path d="M200.202 114.7L200.602 118L191.402 123.6L190.002 114.7H200.202Z" fill="#292B2E"/>
</g>
<mask id="mask80_251_3066" style="mask-type:luminance" maskUnits="userSpaceOnUse" x="0" y="0" width="234" height="255">
<path d="M0.000778198 0H233.801V254.1H0.000778198V0Z" fill="white"/>
</mask>
<g mask="url(#mask80_251_3066)">
<path d="M31.7012 114.3L30.9012 119.3L20.7012 122.6L21.3012 113.6L31.7012 114.3Z" fill="#292B2E"/>
</g>
</svg>
