<svg width="225" height="154" viewBox="0 0 225 154" fill="none" xmlns="http://www.w3.org/2000/svg">
<rect x="2.09719" y="1.59914" width="220.682" height="150.319" rx="17.5906" fill="white" stroke="#D9D9D9" stroke-width="3.19828"/>
<path fill-rule="evenodd" clip-rule="evenodd" d="M120.787 52.0805L109.414 54.5212V45.3008L120.787 42.9053V52.0805ZM74.5709 48.1483L63.5154 50.4986L63.4701 86.7025C63.4701 93.3918 68.4994 98.3184 75.2052 98.3184C78.9205 98.3184 81.6391 97.6405 83.1343 96.8269V87.6516C81.6844 88.2392 74.5255 90.3183 74.5255 83.629V67.5836H83.1343V57.9563H74.5255L74.5709 48.1483ZM195.592 77.8888C195.592 66.318 189.973 57.1879 179.235 57.1879C168.451 57.1879 161.927 66.318 161.927 77.7984C161.927 91.4031 169.629 98.2732 180.685 98.2732C186.077 98.2732 190.154 97.0529 193.235 95.3353V86.2957C190.154 87.8324 186.62 88.7816 182.135 88.7816C177.74 88.7816 173.843 87.2448 173.345 81.9114H195.501C195.501 81.663 195.517 81.0993 195.536 80.4495L195.536 80.4444V80.4437L195.536 80.4422L195.536 80.4408C195.561 79.5556 195.592 78.5128 195.592 77.8888ZM173.208 73.595C173.208 68.4876 176.335 66.3633 179.189 66.3633C181.953 66.3633 184.898 68.4876 184.898 73.595H173.208ZM47.795 66.9961C45.3936 66.9961 43.9437 67.6741 43.9437 69.4368C43.9437 71.3614 46.439 72.2081 49.5347 73.2584C54.5814 74.9707 61.2237 77.2244 61.2518 85.5726C61.2518 93.6631 54.7726 98.3186 45.3483 98.3186C41.4517 98.3186 37.1926 97.5502 32.9789 95.7423V84.985C36.7848 87.0642 41.5876 88.6009 45.3483 88.6009C47.8856 88.6009 49.698 87.9229 49.698 85.8438C49.698 83.7119 46.993 82.7375 43.7274 81.5611C38.7541 79.7695 32.4805 77.5094 32.4805 69.9792C32.4805 61.9791 38.5972 57.188 47.795 57.188C51.5557 57.188 55.271 57.7756 59.0317 59.2672V69.8888C55.5882 68.0357 51.2385 66.9961 47.795 66.9961ZM97.2287 61.301L96.5038 57.9563H86.717V97.5049H98.0443V70.7023C100.718 67.222 105.248 67.8548 106.653 68.352V57.9563C105.203 57.414 99.9019 56.4196 97.2287 61.301ZM109.414 57.9564H120.787V97.5049H109.414V57.9564ZM135.557 60.7134C137.142 59.2671 139.997 57.1879 144.437 57.1879C152.366 57.1879 159.842 64.3293 159.888 77.4368C159.888 91.7647 152.502 98.2733 144.392 98.2733C140.405 98.2733 138.003 96.601 136.372 95.4258L136.327 108.217L125 110.612V57.9111H134.968L135.557 60.7134ZM136.373 86.2053C137.461 87.3804 139.046 88.3296 141.72 88.3296C145.888 88.3296 148.697 83.8098 148.697 77.7532C148.697 71.8322 145.843 67.222 141.72 67.222C139.137 67.222 137.506 68.126 136.328 69.4367L136.373 86.2053Z" fill="#6461FC"/>
</svg>
