<svg width="70" height="70" viewBox="0 0 70 70" fill="none" xmlns="http://www.w3.org/2000/svg">
<g clip-path="url(#clip0_788_6143)">
<circle cx="35" cy="35" r="34" fill="white" stroke="#E1E1E1" stroke-width="2"/>
<g clip-path="url(#clip1_788_6143)">
<path d="M44.9969 34.8786C44.9969 39.059 45.0045 43.2394 44.9944 47.4198C44.9893 49.8902 43.9258 50.992 41.5673 50.9947C37.4941 51 33.4234 51.0027 29.3502 50.9947C27.0909 50.9893 26.0122 49.8582 26.0096 47.4652C26.002 39.1497 26.002 30.8316 26.0096 22.5161C26.0096 20.1391 27.1036 19.0107 29.3705 19.0053C33.4845 19 37.601 18.9973 41.7149 19.0053C43.8902 19.0107 44.9842 20.1605 44.9918 22.4681C45.0071 26.6058 44.9944 30.7409 44.9969 34.8786ZM28.765 32.3282C28.765 35.4842 28.7853 38.6402 28.7523 41.7962C28.7421 42.7192 29.055 43.0447 29.9404 43.0367C33.6727 43.002 37.4025 43.0047 41.1348 43.034C41.9693 43.0393 42.2492 42.7005 42.2466 41.8522C42.2288 35.6283 42.2263 29.4043 42.2492 23.1831C42.2517 22.2787 41.9439 21.8972 41.0636 21.9025C37.3745 21.9265 33.6854 21.9292 29.9964 21.8999C29.0474 21.8919 28.7421 22.3 28.7523 23.2604C28.7879 26.283 28.765 29.3056 28.765 32.3282ZM35.4791 49.0552C36.5324 49.0685 37.4254 48.1641 37.4508 47.0624C37.4763 45.9419 36.652 45.0188 35.5834 44.9655C34.4767 44.9121 33.543 45.8538 33.5481 47.0197C33.5531 48.1241 34.4258 49.0445 35.4791 49.0552Z" fill="#15D85E"/>
</g>
</g>
<defs>
<clipPath id="clip0_788_6143">
<rect width="70" height="70" fill="white"/>
</clipPath>
<clipPath id="clip1_788_6143">
<rect width="19" height="32" fill="white" transform="translate(26 19)"/>
</clipPath>
</defs>
</svg>
