<svg width="225" height="154" viewBox="0 0 225 154" fill="none" xmlns="http://www.w3.org/2000/svg">
<rect x="2.45852" y="1.59914" width="220.682" height="150.319" rx="17.5906" fill="white" stroke="#D9D9D9" stroke-width="3.19828"/>
<path fill-rule="evenodd" clip-rule="evenodd" d="M68.8252 103.997H55.2624L45.0919 65.196C44.6092 63.4112 43.5842 61.8333 42.0765 61.0896C38.3139 59.2207 34.1677 57.7333 29.6445 56.9832V55.4893H51.4931C54.5085 55.4893 56.7701 57.7333 57.147 60.3394L62.424 88.3277L75.9802 55.4893H89.166L68.8252 103.997ZM96.7056 103.997H83.8967L94.444 55.4893H107.253L96.7056 103.997ZM123.825 68.9274C124.202 66.3148 126.463 64.8209 129.102 64.8209C133.248 64.4459 137.764 65.196 141.534 67.0585L143.795 56.6146C140.026 55.1208 135.88 54.3706 132.117 54.3706C119.685 54.3706 110.639 61.0896 110.639 70.4147C110.639 77.5088 117.047 81.2337 121.57 83.4776C126.463 85.7152 128.348 87.209 127.971 89.4465C127.971 92.8028 124.202 94.2966 120.439 94.2966C115.916 94.2966 111.393 93.1778 107.253 91.3089L104.992 101.759C109.515 103.622 114.408 104.372 118.931 104.372C132.871 104.74 141.534 98.0279 141.534 87.9527C141.534 75.2648 123.825 74.5211 123.825 68.9274ZM186.361 103.997L176.191 55.4893H165.267C163.005 55.4893 160.744 56.9832 159.99 59.2207L141.157 103.997H154.342L156.974 96.9092H173.176L174.683 103.997H186.361ZM167.15 68.5523L170.912 86.834H160.365L167.15 68.5523Z" fill="#172B85"/>
</svg>
